<?xml version="1.0" encoding="UTF-8" standalone="no"?>
<!DOCTYPE svg PUBLIC "-//W3C//DTD SVG 1.1//EN"
 "http://www.w3.org/Graphics/SVG/1.1/DTD/svg11.dtd">
<!-- Generated by graphviz version 2.36.0 (20140111.2315)
 -->
<!-- Title: G Pages: 1 -->
<svg width="468pt" height="1054pt"
 viewBox="0.00 0.00 468.00 1054.00" xmlns="http://www.w3.org/2000/svg" xmlns:xlink="http://www.w3.org/1999/xlink">
<g id="graph0" class="graph" transform="scale(1 1) rotate(0) translate(4 1050)">
<title>G</title>
<polygon fill="white" stroke="none" points="-4,4 -4,-1050 464,-1050 464,4 -4,4"/>
<!-- Main -->
<g id="node1" class="node"><title>Main</title>
<polygon fill="Wheat" stroke="black" points="54,-533 -3.55271e-15,-533 -3.55271e-15,-497 54,-497 54,-533"/>
<text text-anchor="middle" x="27" y="-511.2" font-family="Times,serif" font-size="16.00" fill="blue">Main</text>
</g>
<!-- Init_BSS -->
<g id="node2" class="node"><title>Init_BSS</title>
<polygon fill="Wheat" stroke="black" points="219,-1046 143,-1046 143,-1010 219,-1010 219,-1046"/>
<text text-anchor="middle" x="181" y="-1024.2" font-family="Times,serif" font-size="16.00" fill="blue">Init_BSS</text>
</g>
<!-- Main&#45;&gt;Init_BSS -->
<g id="edge1" class="edge"><title>Main&#45;&gt;Init_BSS</title>
<path fill="none" stroke="black" d="M27.7723,-533.004C27.1376,-612.155 28.539,-928.49 90,-1001 100.643,-1013.56 116.877,-1020.41 132.642,-1024.1"/>
<polygon fill="black" stroke="black" points="132.384,-1027.62 142.87,-1026.1 133.728,-1020.75 132.384,-1027.62"/>
</g>
<!-- Init_Screen -->
<g id="node3" class="node"><title>Init_Screen</title>
<polygon fill="Wheat" stroke="black" points="226,-992 136,-992 136,-956 226,-956 226,-992"/>
<text text-anchor="middle" x="181" y="-970.2" font-family="Times,serif" font-size="16.00" fill="blue">Init_Screen</text>
</g>
<!-- Main&#45;&gt;Init_Screen -->
<g id="edge2" class="edge"><title>Main&#45;&gt;Init_Screen</title>
<path fill="none" stroke="black" d="M28.0936,-533.208C28.8406,-607.078 35.3042,-883.486 90,-947 99.1655,-957.643 112.347,-964.181 125.805,-968.172"/>
<polygon fill="black" stroke="black" points="125.048,-971.59 135.601,-970.649 126.764,-964.804 125.048,-971.59"/>
</g>
<!-- Init_Mem -->
<g id="node4" class="node"><title>Init_Mem</title>
<polygon fill="Wheat" stroke="black" points="221.5,-938 140.5,-938 140.5,-902 221.5,-902 221.5,-938"/>
<text text-anchor="middle" x="181" y="-916.2" font-family="Times,serif" font-size="16.00" fill="blue">Init_Mem</text>
</g>
<!-- Main&#45;&gt;Init_Mem -->
<g id="edge3" class="edge"><title>Main&#45;&gt;Init_Mem</title>
<path fill="none" stroke="black" d="M28.5141,-533.444C30.7833,-601.642 42.0413,-838.425 90,-893 100.335,-904.761 115.571,-911.498 130.58,-915.326"/>
<polygon fill="black" stroke="black" points="129.842,-918.747 140.356,-917.444 131.325,-911.906 129.842,-918.747"/>
</g>
<!-- Init_CRC32 -->
<g id="node5" class="node"><title>Init_CRC32</title>
<polygon fill="Wheat" stroke="black" points="228.5,-884 133.5,-884 133.5,-848 228.5,-848 228.5,-884"/>
<text text-anchor="middle" x="181" y="-862.2" font-family="Times,serif" font-size="16.00" fill="blue">Init_CRC32</text>
</g>
<!-- Main&#45;&gt;Init_CRC32 -->
<g id="edge4" class="edge"><title>Main&#45;&gt;Init_CRC32</title>
<path fill="none" stroke="black" d="M29.0599,-533.322C32.9836,-594.912 48.655,-793.189 90,-839 98.7104,-848.651 110.72,-854.91 123.13,-858.953"/>
<polygon fill="black" stroke="black" points="122.54,-862.423 133.113,-861.744 124.424,-855.681 122.54,-862.423"/>
</g>
<!-- Init_TSS -->
<g id="node6" class="node"><title>Init_TSS</title>
<polygon fill="Wheat" stroke="black" points="218.5,-830 143.5,-830 143.5,-794 218.5,-794 218.5,-830"/>
<text text-anchor="middle" x="181" y="-808.2" font-family="Times,serif" font-size="16.00" fill="blue">Init_TSS</text>
</g>
<!-- Main&#45;&gt;Init_TSS -->
<g id="edge5" class="edge"><title>Main&#45;&gt;Init_TSS</title>
<path fill="none" stroke="black" d="M29.8177,-533.273C35.5959,-587.802 55.2376,-747.874 90,-785 101.25,-797.015 117.613,-803.753 133.31,-807.508"/>
<polygon fill="black" stroke="black" points="132.973,-811.01 143.469,-809.569 134.365,-804.15 132.973,-811.01"/>
</g>
<!-- Init_Interrupts -->
<g id="node7" class="node"><title>Init_Interrupts</title>
<polygon fill="Wheat" stroke="black" points="236,-776 126,-776 126,-740 236,-740 236,-776"/>
<text text-anchor="middle" x="181" y="-754.2" font-family="Times,serif" font-size="16.00" fill="blue">Init_Interrupts</text>
</g>
<!-- Main&#45;&gt;Init_Interrupts -->
<g id="edge6" class="edge"><title>Main&#45;&gt;Init_Interrupts</title>
<path fill="none" stroke="black" d="M27.7261,-533.209C28.1292,-574.378 35.0186,-675.359 90,-731 97.2988,-738.386 106.533,-743.769 116.288,-747.687"/>
<polygon fill="black" stroke="black" points="115.159,-751.001 125.754,-751.013 117.48,-744.396 115.159,-751.001"/>
</g>
<!-- Init_Scheduler -->
<g id="node8" class="node"><title>Init_Scheduler</title>
<polygon fill="Wheat" stroke="black" points="236.5,-722 125.5,-722 125.5,-686 236.5,-686 236.5,-722"/>
<text text-anchor="middle" x="181" y="-700.2" font-family="Times,serif" font-size="16.00" fill="blue">Init_Scheduler</text>
</g>
<!-- Main&#45;&gt;Init_Scheduler -->
<g id="edge7" class="edge"><title>Main&#45;&gt;Init_Scheduler</title>
<path fill="none" stroke="black" d="M29.7761,-533.196C34.0114,-566.575 47.7401,-637.759 90,-677 97.3518,-683.827 106.365,-688.931 115.818,-692.748"/>
<polygon fill="black" stroke="black" points="114.777,-696.092 125.372,-696.151 117.126,-689.498 114.777,-696.092"/>
</g>
<!-- Init_Traps -->
<g id="node9" class="node"><title>Init_Traps</title>
<polygon fill="Wheat" stroke="black" points="222.5,-668 139.5,-668 139.5,-632 222.5,-632 222.5,-668"/>
<text text-anchor="middle" x="181" y="-646.2" font-family="Times,serif" font-size="16.00" fill="blue">Init_Traps</text>
</g>
<!-- Main&#45;&gt;Init_Traps -->
<g id="edge8" class="edge"><title>Main&#45;&gt;Init_Traps</title>
<path fill="none" stroke="black" d="M33.6459,-533.121C42.0627,-557.174 60.1878,-599.354 90,-623 101.313,-631.973 115.563,-637.969 129.365,-641.974"/>
<polygon fill="black" stroke="black" points="128.73,-645.425 139.289,-644.552 130.49,-638.65 128.73,-645.425"/>
</g>
<!-- Init_Timer -->
<g id="node10" class="node"><title>Init_Timer</title>
<polygon fill="Wheat" stroke="black" points="224,-614 138,-614 138,-578 224,-578 224,-614"/>
<text text-anchor="middle" x="181" y="-592.2" font-family="Times,serif" font-size="16.00" fill="blue">Init_Timer</text>
</g>
<!-- Main&#45;&gt;Init_Timer -->
<g id="edge9" class="edge"><title>Main&#45;&gt;Init_Timer</title>
<path fill="none" stroke="black" d="M44.6354,-533.035C56.3237,-544.755 72.876,-559.556 90,-569 101.725,-575.466 115.182,-580.561 128.057,-584.5"/>
<polygon fill="black" stroke="black" points="127.172,-587.888 137.75,-587.29 129.109,-581.161 127.172,-587.888"/>
</g>
<!-- Init_Keyboard -->
<g id="node11" class="node"><title>Init_Keyboard</title>
<polygon fill="Wheat" stroke="black" points="236,-560 126,-560 126,-524 236,-524 236,-560"/>
<text text-anchor="middle" x="181" y="-538.2" font-family="Times,serif" font-size="16.00" fill="blue">Init_Keyboard</text>
</g>
<!-- Main&#45;&gt;Init_Keyboard -->
<g id="edge10" class="edge"><title>Main&#45;&gt;Init_Keyboard</title>
<path fill="none" stroke="black" d="M54.1297,-519.641C71.2067,-522.675 94.2981,-526.777 116.041,-530.639"/>
<polygon fill="black" stroke="black" points="115.451,-534.089 125.909,-532.392 116.675,-527.197 115.451,-534.089"/>
</g>
<!-- Init_DMA -->
<g id="node12" class="node"><title>Init_DMA</title>
<polygon fill="Wheat" stroke="black" points="223,-506 139,-506 139,-470 223,-470 223,-506"/>
<text text-anchor="middle" x="181" y="-484.2" font-family="Times,serif" font-size="16.00" fill="blue">Init_DMA</text>
</g>
<!-- Main&#45;&gt;Init_DMA -->
<g id="edge11" class="edge"><title>Main&#45;&gt;Init_DMA</title>
<path fill="none" stroke="black" d="M54.1297,-510.359C74.5708,-506.728 103.629,-501.566 128.677,-497.117"/>
<polygon fill="black" stroke="black" points="129.534,-500.519 138.768,-495.324 128.31,-493.627 129.534,-500.519"/>
</g>
<!-- Init_Floppy -->
<g id="node13" class="node"><title>Init_Floppy</title>
<polygon fill="Wheat" stroke="black" points="228,-452 134,-452 134,-416 228,-416 228,-452"/>
<text text-anchor="middle" x="181" y="-430.2" font-family="Times,serif" font-size="16.00" fill="blue">Init_Floppy</text>
</g>
<!-- Main&#45;&gt;Init_Floppy -->
<g id="edge12" class="edge"><title>Main&#45;&gt;Init_Floppy</title>
<path fill="none" stroke="black" d="M44.6354,-496.965C56.3237,-485.245 72.876,-470.444 90,-461 100.49,-455.215 112.368,-450.527 123.974,-446.782"/>
<polygon fill="black" stroke="black" points="125.07,-450.108 133.623,-443.856 123.038,-443.409 125.07,-450.108"/>
</g>
<!-- Init_IDE -->
<g id="node14" class="node"><title>Init_IDE</title>
<polygon fill="Wheat" stroke="black" points="218,-398 144,-398 144,-362 218,-362 218,-398"/>
<text text-anchor="middle" x="181" y="-376.2" font-family="Times,serif" font-size="16.00" fill="blue">Init_IDE</text>
</g>
<!-- Main&#45;&gt;Init_IDE -->
<g id="edge13" class="edge"><title>Main&#45;&gt;Init_IDE</title>
<path fill="none" stroke="black" d="M33.6459,-496.879C42.0627,-472.826 60.1878,-430.646 90,-407 102.581,-397.021 118.794,-390.724 133.985,-386.753"/>
<polygon fill="black" stroke="black" points="134.832,-390.15 143.772,-384.464 133.238,-383.334 134.832,-390.15"/>
</g>
<!-- Init_PFAT -->
<g id="node15" class="node"><title>Init_PFAT</title>
<polygon fill="Wheat" stroke="black" points="224,-344 138,-344 138,-308 224,-308 224,-344"/>
<text text-anchor="middle" x="181" y="-322.2" font-family="Times,serif" font-size="16.00" fill="blue">Init_PFAT</text>
</g>
<!-- Main&#45;&gt;Init_PFAT -->
<g id="edge14" class="edge"><title>Main&#45;&gt;Init_PFAT</title>
<path fill="none" stroke="black" d="M29.7761,-496.804C34.0114,-463.425 47.7401,-392.241 90,-353 100.485,-343.264 114.35,-337.03 128.049,-333.041"/>
<polygon fill="black" stroke="black" points="129.119,-336.38 137.943,-330.516 127.388,-329.598 129.119,-336.38"/>
</g>
<!-- Mount_Root_Filesystem  -->
<g id="node16" class="node"><title>Mount_Root_Filesystem </title>
<polygon fill="Wheat" stroke="black" points="271.5,-290 90.5,-290 90.5,-254 271.5,-254 271.5,-290"/>
<text text-anchor="middle" x="181" y="-268.2" font-family="Times,serif" font-size="16.00" fill="blue">Mount_Root_Filesystem </text>
</g>
<!-- Main&#45;&gt;Mount_Root_Filesystem  -->
<g id="edge15" class="edge"><title>Main&#45;&gt;Mount_Root_Filesystem </title>
<path fill="none" stroke="black" d="M27.7261,-496.791C28.1292,-455.622 35.0186,-354.641 90,-299 90.9352,-298.054 91.9022,-297.14 92.8979,-296.258"/>
<polygon fill="black" stroke="black" points="95.1778,-298.922 101.047,-290.102 90.9579,-293.337 95.1778,-298.922"/>
</g>
<!-- Print -->
<g id="node18" class="node"><title>Print</title>
<polygon fill="Wheat" stroke="black" points="411,-240 357,-240 357,-204 411,-204 411,-240"/>
<text text-anchor="middle" x="384" y="-218.2" font-family="Times,serif" font-size="16.00" fill="blue">Print</text>
</g>
<!-- Main&#45;&gt;Print -->
<g id="edge20" class="edge"><title>Main&#45;&gt;Print</title>
<path fill="none" stroke="black" d="M29.4437,-496.764C34.2105,-441.609 51.395,-278.297 90,-245 127.578,-212.588 277.209,-216.152 346.917,-219.734"/>
<polygon fill="black" stroke="black" points="346.819,-223.234 356.994,-220.281 347.199,-216.244 346.819,-223.234"/>
</g>
<!-- Set_Current_Attr -->
<g id="node19" class="node"><title>Set_Current_Attr</title>
<polygon fill="Wheat" stroke="black" points="245,-198 117,-198 117,-162 245,-162 245,-198"/>
<text text-anchor="middle" x="181" y="-176.2" font-family="Times,serif" font-size="16.00" fill="blue">Set_Current_Attr</text>
</g>
<!-- Main&#45;&gt;Set_Current_Attr -->
<g id="edge18" class="edge"><title>Main&#45;&gt;Set_Current_Attr</title>
<path fill="none" stroke="black" d="M29.4155,-496.711C34.3082,-437.962 52.311,-255.363 90,-212 94.9362,-206.321 100.95,-201.649 107.504,-197.807"/>
<polygon fill="black" stroke="black" points="109.434,-200.75 116.727,-193.065 106.233,-194.525 109.434,-200.75"/>
</g>
<!-- ATTRIB -->
<g id="node20" class="node"><title>ATTRIB</title>
<polygon fill="Wheat" stroke="black" points="218,-144 144,-144 144,-108 218,-108 218,-144"/>
<text text-anchor="middle" x="181" y="-122.2" font-family="Times,serif" font-size="16.00" fill="blue">ATTRIB</text>
</g>
<!-- Main&#45;&gt;ATTRIB -->
<g id="edge19" class="edge"><title>Main&#45;&gt;ATTRIB</title>
<path fill="none" stroke="black" d="M28.648,-496.88C31.3656,-430.958 43.9384,-205.045 90,-153 100.997,-140.574 117.464,-133.76 133.318,-130.06"/>
<polygon fill="black" stroke="black" points="134.443,-133.407 143.584,-128.051 133.098,-126.537 134.443,-133.407"/>
</g>
<!-- Spawn_Init_Process  -->
<g id="node21" class="node"><title>Spawn_Init_Process </title>
<polygon fill="Wheat" stroke="black" points="256.5,-90 105.5,-90 105.5,-54 256.5,-54 256.5,-90"/>
<text text-anchor="middle" x="181" y="-68.2" font-family="Times,serif" font-size="16.00" fill="blue">Spawn_Init_Process </text>
</g>
<!-- Main&#45;&gt;Spawn_Init_Process  -->
<g id="edge21" class="edge"><title>Main&#45;&gt;Spawn_Init_Process </title>
<path fill="none" stroke="black" d="M28.206,-496.731C29.3877,-424.504 37.3023,-159.86 90,-99 92.0522,-96.6299 94.3036,-94.4635 96.7126,-92.4835"/>
<polygon fill="black" stroke="black" points="99.2134,-95.0097 105.45,-86.4451 95.2337,-89.2511 99.2134,-95.0097"/>
</g>
<!-- Exit -->
<g id="node23" class="node"><title>Exit</title>
<polygon fill="Wheat" stroke="black" points="208,-36 154,-36 154,-0 208,-0 208,-36"/>
<text text-anchor="middle" x="181" y="-14.2" font-family="Times,serif" font-size="16.00" fill="blue">Exit</text>
</g>
<!-- Main&#45;&gt;Exit -->
<g id="edge24" class="edge"><title>Main&#45;&gt;Exit</title>
<path fill="none" stroke="black" d="M27.8589,-496.806C27.6242,-418.97 30.5798,-114.799 90,-45 103.205,-29.4886 124.942,-22.6855 143.745,-19.7858"/>
<polygon fill="black" stroke="black" points="144.32,-23.2416 153.817,-18.5459 143.464,-16.294 144.32,-23.2416"/>
</g>
<!-- Mount -->
<g id="node17" class="node"><title>Mount</title>
<polygon fill="Wheat" stroke="black" points="414,-294 354,-294 354,-258 414,-258 414,-294"/>
<text text-anchor="middle" x="384" y="-272.2" font-family="Times,serif" font-size="16.00" fill="blue">Mount</text>
</g>
<!-- Mount_Root_Filesystem &#45;&gt;Mount -->
<g id="edge16" class="edge"><title>Mount_Root_Filesystem &#45;&gt;Mount</title>
<path fill="none" stroke="black" d="M271.625,-273.784C296.765,-274.284 322.823,-274.802 343.408,-275.212"/>
<polygon fill="black" stroke="black" points="343.572,-278.716 353.639,-275.416 343.711,-271.717 343.572,-278.716"/>
</g>
<!-- Mount_Root_Filesystem &#45;&gt;Print -->
<g id="edge17" class="edge"><title>Mount_Root_Filesystem &#45;&gt;Print</title>
<path fill="none" stroke="black" d="M254.566,-253.949C285.797,-246.18 320.937,-237.439 346.556,-231.066"/>
<polygon fill="black" stroke="black" points="347.708,-234.386 356.568,-228.575 346.019,-227.593 347.708,-234.386"/>
</g>
<!-- Spawn_Init_Process &#45;&gt;Print -->
<g id="edge22" class="edge"><title>Spawn_Init_Process &#45;&gt;Print</title>
<path fill="none" stroke="black" d="M255.243,-90.1823C261.095,-92.7609 266.761,-95.686 272,-99 311.701,-124.115 345.925,-167.248 365.5,-195.186"/>
<polygon fill="black" stroke="black" points="362.786,-197.416 371.33,-203.681 368.558,-193.455 362.786,-197.416"/>
</g>
<!-- Start_Kernel_Thread -->
<g id="node22" class="node"><title>Start_Kernel_Thread</title>
<polygon fill="Wheat" stroke="black" points="459.5,-90 308.5,-90 308.5,-54 459.5,-54 459.5,-90"/>
<text text-anchor="middle" x="384" y="-68.2" font-family="Times,serif" font-size="16.00" fill="blue">Start_Kernel_Thread</text>
</g>
<!-- Spawn_Init_Process &#45;&gt;Start_Kernel_Thread -->
<g id="edge23" class="edge"><title>Spawn_Init_Process &#45;&gt;Start_Kernel_Thread</title>
<path fill="none" stroke="black" d="M256.559,-72C270.003,-72 284.111,-72 297.829,-72"/>
<polygon fill="black" stroke="black" points="298.226,-75.5001 308.226,-72 298.226,-68.5001 298.226,-75.5001"/>
</g>
</g>
</svg>
