<?xml version="1.0" encoding="UTF-8" standalone="no"?>
<!DOCTYPE svg PUBLIC "-//W3C//DTD SVG 1.1//EN"
 "http://www.w3.org/Graphics/SVG/1.1/DTD/svg11.dtd">
<!-- Generated by graphviz version 2.36.0 (20140111.2315)
 -->
<!-- Title: G Pages: 1 -->
<svg width="1100pt" height="534pt"
 viewBox="0.00 0.00 1100.00 534.00" xmlns="http://www.w3.org/2000/svg" xmlns:xlink="http://www.w3.org/1999/xlink">
<g id="graph0" class="graph" transform="scale(1 1) rotate(0) translate(4 530)">
<title>G</title>
<polygon fill="white" stroke="none" points="-4,4 -4,-530 1096,-530 1096,4 -4,4"/>
<!-- Init_Scheduler -->
<g id="node1" class="node"><title>Init_Scheduler</title>
<polygon fill="Wheat" stroke="black" points="111.5,-249 0.5,-249 0.5,-213 111.5,-213 111.5,-249"/>
<text text-anchor="middle" x="56" y="-227.2" font-family="Times,serif" font-size="16.00" fill="blue">Init_Scheduler</text>
</g>
<!-- Init_Thread  -->
<g id="node2" class="node"><title>Init_Thread </title>
<polygon fill="Wheat" stroke="black" points="322,-472 226,-472 226,-436 322,-436 322,-472"/>
<text text-anchor="middle" x="274" y="-450.2" font-family="Times,serif" font-size="16.00" fill="blue">Init_Thread </text>
</g>
<!-- Init_Scheduler&#45;&gt;Init_Thread  -->
<g id="edge1" class="edge"><title>Init_Scheduler&#45;&gt;Init_Thread </title>
<path fill="none" stroke="black" d="M74.6762,-249.249C113.06,-288.877 204.122,-382.89 248.22,-428.417"/>
<polygon fill="black" stroke="black" points="245.911,-431.064 255.383,-435.812 250.939,-426.194 245.911,-431.064"/>
</g>
<!-- Add_To_Back_Of_All_Thread_List -->
<g id="node5" class="node"><title>Add_To_Back_Of_All_Thread_List</title>
<polygon fill="Wheat" stroke="black" points="399.5,-195 148.5,-195 148.5,-159 399.5,-159 399.5,-195"/>
<text text-anchor="middle" x="274" y="-173.2" font-family="Times,serif" font-size="16.00" fill="blue">Add_To_Back_Of_All_Thread_List</text>
</g>
<!-- Init_Scheduler&#45;&gt;Add_To_Back_Of_All_Thread_List -->
<g id="edge4" class="edge"><title>Init_Scheduler&#45;&gt;Add_To_Back_Of_All_Thread_List</title>
<path fill="none" stroke="black" d="M111.671,-214.049C123.598,-210.556 136.186,-207.024 148,-204 156.939,-201.712 166.271,-199.455 175.632,-197.28"/>
<polygon fill="black" stroke="black" points="176.417,-200.69 185.382,-195.044 174.853,-193.867 176.417,-200.69"/>
</g>
<!-- Start_Kernel_Thread  -->
<g id="node6" class="node"><title>Start_Kernel_Thread </title>
<polygon fill="Wheat" stroke="black" points="351.5,-141 196.5,-141 196.5,-105 351.5,-105 351.5,-141"/>
<text text-anchor="middle" x="274" y="-119.2" font-family="Times,serif" font-size="16.00" fill="blue">Start_Kernel_Thread </text>
</g>
<!-- Init_Scheduler&#45;&gt;Start_Kernel_Thread  -->
<g id="edge5" class="edge"><title>Init_Scheduler&#45;&gt;Start_Kernel_Thread </title>
<path fill="none" stroke="black" d="M72.1337,-212.879C88.7754,-194.183 117.263,-165.614 148,-150 160.026,-143.891 173.384,-139.161 186.764,-135.499"/>
<polygon fill="black" stroke="black" points="187.668,-138.881 196.493,-133.017 185.938,-132.098 187.668,-138.881"/>
</g>
<!-- Idle  -->
<g id="node7" class="node"><title>Idle </title>
<polygon fill="Wheat" stroke="black" points="301,-249 247,-249 247,-213 301,-213 301,-249"/>
<text text-anchor="middle" x="274" y="-227.2" font-family="Times,serif" font-size="16.00" fill="blue">Idle </text>
</g>
<!-- Init_Scheduler&#45;&gt;Idle  -->
<g id="edge6" class="edge"><title>Init_Scheduler&#45;&gt;Idle </title>
<path fill="none" stroke="black" d="M111.506,-231C150.694,-231 202.453,-231 236.688,-231"/>
<polygon fill="black" stroke="black" points="236.717,-234.5 246.717,-231 236.717,-227.5 236.717,-234.5"/>
</g>
<!-- Reaper  -->
<g id="node18" class="node"><title>Reaper </title>
<polygon fill="Wheat" stroke="black" points="306.5,-303 241.5,-303 241.5,-267 306.5,-267 306.5,-303"/>
<text text-anchor="middle" x="274" y="-281.2" font-family="Times,serif" font-size="16.00" fill="blue">Reaper </text>
</g>
<!-- Init_Scheduler&#45;&gt;Reaper  -->
<g id="edge19" class="edge"><title>Init_Scheduler&#45;&gt;Reaper </title>
<path fill="none" stroke="black" d="M111.671,-247.951C123.598,-251.444 136.186,-254.976 148,-258 175.571,-265.057 206.872,-271.817 231.255,-276.807"/>
<polygon fill="black" stroke="black" points="230.754,-280.277 241.25,-278.833 232.145,-273.416 230.754,-280.277"/>
</g>
<!-- memset -->
<g id="node3" class="node"><title>memset</title>
<polygon fill="Wheat" stroke="black" points="571,-526 505,-526 505,-490 571,-490 571,-526"/>
<text text-anchor="middle" x="538" y="-504.2" font-family="Times,serif" font-size="16.00" fill="blue">memset</text>
</g>
<!-- Init_Thread &#45;&gt;memset -->
<g id="edge2" class="edge"><title>Init_Thread &#45;&gt;memset</title>
<path fill="none" stroke="black" d="M322.143,-463.716C371.281,-473.844 447.574,-489.569 494.792,-499.301"/>
<polygon fill="black" stroke="black" points="494.193,-502.751 504.694,-501.342 495.607,-495.895 494.193,-502.751"/>
</g>
<!-- Clear_Thread_Queue -->
<g id="node4" class="node"><title>Clear_Thread_Queue</title>
<polygon fill="Wheat" stroke="black" points="614.5,-472 461.5,-472 461.5,-436 614.5,-436 614.5,-472"/>
<text text-anchor="middle" x="538" y="-450.2" font-family="Times,serif" font-size="16.00" fill="blue">Clear_Thread_Queue</text>
</g>
<!-- Init_Thread &#45;&gt;Clear_Thread_Queue -->
<g id="edge3" class="edge"><title>Init_Thread &#45;&gt;Clear_Thread_Queue</title>
<path fill="none" stroke="black" d="M322.143,-454C358.014,-454 408.357,-454 451.296,-454"/>
<polygon fill="black" stroke="black" points="451.469,-457.5 461.469,-454 451.469,-450.5 451.469,-457.5"/>
</g>
<!-- Yield  -->
<g id="node8" class="node"><title>Yield </title>
<polygon fill="Wheat" stroke="black" points="566,-180 510,-180 510,-144 566,-144 566,-180"/>
<text text-anchor="middle" x="538" y="-158.2" font-family="Times,serif" font-size="16.00" fill="blue">Yield </text>
</g>
<!-- Idle &#45;&gt;Yield  -->
<g id="edge7" class="edge"><title>Idle &#45;&gt;Yield </title>
<path fill="none" stroke="black" d="M301.214,-226.772C326.757,-222.318 366.527,-214.493 400,-204 416.54,-198.815 419.591,-194.584 436,-189 456.828,-181.912 480.576,-175.483 499.809,-170.678"/>
<polygon fill="black" stroke="black" points="500.822,-174.034 509.699,-168.25 499.153,-167.235 500.822,-174.034"/>
</g>
<!-- Disable_Interrupts -->
<g id="node9" class="node"><title>Disable_Interrupts</title>
<polygon fill="Wheat" stroke="black" points="857.5,-384 722.5,-384 722.5,-348 857.5,-348 857.5,-384"/>
<text text-anchor="middle" x="790" y="-362.2" font-family="Times,serif" font-size="16.00" fill="blue">Disable_Interrupts</text>
</g>
<!-- Yield &#45;&gt;Disable_Interrupts -->
<g id="edge8" class="edge"><title>Yield &#45;&gt;Disable_Interrupts</title>
<path fill="none" stroke="black" d="M566.381,-161.995C589.168,-163.506 620.871,-169.373 640,-189 687.853,-238.097 627.497,-290.545 676,-339 685.933,-348.923 698.818,-355.445 712.315,-359.684"/>
<polygon fill="black" stroke="black" points="711.65,-363.13 722.219,-362.382 713.491,-356.376 711.65,-363.13"/>
</g>
<!-- Make_Runnable  -->
<g id="node10" class="node"><title>Make_Runnable </title>
<polygon fill="Wheat" stroke="black" points="853,-109 727,-109 727,-73 853,-73 853,-109"/>
<text text-anchor="middle" x="790" y="-87.2" font-family="Times,serif" font-size="16.00" fill="blue">Make_Runnable </text>
</g>
<!-- Yield &#45;&gt;Make_Runnable  -->
<g id="edge9" class="edge"><title>Yield &#45;&gt;Make_Runnable </title>
<path fill="none" stroke="black" d="M566.059,-154.97C586.428,-149.629 615.014,-142.028 640,-135 666.017,-127.682 694.494,-119.353 719.519,-111.924"/>
<polygon fill="black" stroke="black" points="720.702,-115.223 729.289,-109.017 718.706,-108.514 720.702,-115.223"/>
</g>
<!-- Schedule  -->
<g id="node14" class="node"><title>Schedule </title>
<polygon fill="Wheat" stroke="black" points="829.5,-201 750.5,-201 750.5,-165 829.5,-165 829.5,-201"/>
<text text-anchor="middle" x="790" y="-179.2" font-family="Times,serif" font-size="16.00" fill="blue">Schedule </text>
</g>
<!-- Yield &#45;&gt;Schedule  -->
<g id="edge13" class="edge"><title>Yield &#45;&gt;Schedule </title>
<path fill="none" stroke="black" d="M566.23,-164.287C607.992,-167.795 688.464,-174.555 740.397,-178.917"/>
<polygon fill="black" stroke="black" points="740.125,-182.407 750.383,-179.756 740.711,-175.431 740.125,-182.407"/>
</g>
<!-- Enable_Interrupts -->
<g id="node17" class="node"><title>Enable_Interrupts</title>
<polygon fill="Wheat" stroke="black" points="855.5,-276 724.5,-276 724.5,-240 855.5,-240 855.5,-276"/>
<text text-anchor="middle" x="790" y="-254.2" font-family="Times,serif" font-size="16.00" fill="blue">Enable_Interrupts</text>
</g>
<!-- Yield &#45;&gt;Enable_Interrupts -->
<g id="edge18" class="edge"><title>Yield &#45;&gt;Enable_Interrupts</title>
<path fill="none" stroke="black" d="M566.226,-167.212C586.931,-171.664 615.872,-178.951 640,-189 657.099,-196.122 659.443,-201.696 676,-210 694.334,-219.195 714.85,-228.259 733.319,-235.992"/>
<polygon fill="black" stroke="black" points="732.189,-239.313 742.767,-239.908 734.869,-232.846 732.189,-239.313"/>
</g>
<!-- KASSERT -->
<g id="node11" class="node"><title>KASSERT</title>
<polygon fill="Wheat" stroke="black" points="1059.5,-97 972.5,-97 972.5,-61 1059.5,-61 1059.5,-97"/>
<text text-anchor="middle" x="1016" y="-75.2" font-family="Times,serif" font-size="16.00" fill="blue">KASSERT</text>
</g>
<!-- Make_Runnable &#45;&gt;KASSERT -->
<g id="edge10" class="edge"><title>Make_Runnable &#45;&gt;KASSERT</title>
<path fill="none" stroke="black" d="M853.099,-87.6733C887.331,-85.8394 929.38,-83.5868 962.045,-81.8369"/>
<polygon fill="black" stroke="black" points="962.501,-85.3176 972.299,-81.2875 962.126,-78.3276 962.501,-85.3176"/>
</g>
<!-- Interrupts_Enabled -->
<g id="node12" class="node"><title>Interrupts_Enabled</title>
<polygon fill="Wheat" stroke="black" points="1086,-151 946,-151 946,-115 1086,-115 1086,-151"/>
<text text-anchor="middle" x="1016" y="-129.2" font-family="Times,serif" font-size="16.00" fill="blue">Interrupts_Enabled</text>
</g>
<!-- Make_Runnable &#45;&gt;Interrupts_Enabled -->
<g id="edge11" class="edge"><title>Make_Runnable &#45;&gt;Interrupts_Enabled</title>
<path fill="none" stroke="black" d="M853.099,-102.644C878.699,-107.444 908.671,-113.063 935.82,-118.154"/>
<polygon fill="black" stroke="black" points="935.208,-121.6 945.682,-120.003 936.498,-114.72 935.208,-121.6"/>
</g>
<!-- Enqueue_Thread -->
<g id="node13" class="node"><title>Enqueue_Thread</title>
<polygon fill="Wheat" stroke="black" points="1079,-36 953,-36 953,-0 1079,-0 1079,-36"/>
<text text-anchor="middle" x="1016" y="-14.2" font-family="Times,serif" font-size="16.00" fill="blue">Enqueue_Thread</text>
</g>
<!-- Make_Runnable &#45;&gt;Enqueue_Thread -->
<g id="edge12" class="edge"><title>Make_Runnable &#45;&gt;Enqueue_Thread</title>
<path fill="none" stroke="black" d="M846.371,-72.9551C877.737,-62.7332 917.144,-49.8907 949.974,-39.1916"/>
<polygon fill="black" stroke="black" points="951.067,-42.5167 959.49,-36.0904 948.897,-35.8612 951.067,-42.5167"/>
</g>
<!-- Schedule &#45;&gt;KASSERT -->
<g id="edge14" class="edge"><title>Schedule &#45;&gt;KASSERT</title>
<path fill="none" stroke="black" d="M822.959,-164.926C852.735,-148.465 898.63,-124.043 940,-106 947.224,-102.849 954.946,-99.7639 962.587,-96.871"/>
<polygon fill="black" stroke="black" points="964.016,-100.074 972.178,-93.3191 961.585,-93.5099 964.016,-100.074"/>
</g>
<!-- Schedule &#45;&gt;Interrupts_Enabled -->
<g id="edge15" class="edge"><title>Schedule &#45;&gt;Interrupts_Enabled</title>
<path fill="none" stroke="black" d="M829.507,-174.405C858.663,-167.897 899.716,-158.733 935.791,-150.681"/>
<polygon fill="black" stroke="black" points="936.823,-154.036 945.82,-148.442 935.298,-147.205 936.823,-154.036"/>
</g>
<!-- Get_Next_Runnable  -->
<g id="node15" class="node"><title>Get_Next_Runnable </title>
<polygon fill="Wheat" stroke="black" points="1092,-205 940,-205 940,-169 1092,-169 1092,-205"/>
<text text-anchor="middle" x="1016" y="-183.2" font-family="Times,serif" font-size="16.00" fill="blue">Get_Next_Runnable </text>
</g>
<!-- Schedule &#45;&gt;Get_Next_Runnable  -->
<g id="edge16" class="edge"><title>Schedule &#45;&gt;Get_Next_Runnable </title>
<path fill="none" stroke="black" d="M829.507,-183.688C857.059,-184.18 895.233,-184.861 929.793,-185.478"/>
<polygon fill="black" stroke="black" points="929.847,-188.98 939.907,-185.659 929.972,-181.981 929.847,-188.98"/>
</g>
<!-- Switch_To_Thread -->
<g id="node16" class="node"><title>Switch_To_Thread</title>
<polygon fill="Wheat" stroke="black" points="1086,-259 946,-259 946,-223 1086,-223 1086,-259"/>
<text text-anchor="middle" x="1016" y="-237.2" font-family="Times,serif" font-size="16.00" fill="blue">Switch_To_Thread</text>
</g>
<!-- Schedule &#45;&gt;Switch_To_Thread -->
<g id="edge17" class="edge"><title>Schedule &#45;&gt;Switch_To_Thread</title>
<path fill="none" stroke="black" d="M829.507,-192.971C858.663,-200.52 899.716,-211.15 935.791,-220.491"/>
<polygon fill="black" stroke="black" points="935.262,-223.969 945.82,-223.087 937.017,-217.192 935.262,-223.969"/>
</g>
<!-- Reaper &#45;&gt;Clear_Thread_Queue -->
<g id="edge26" class="edge"><title>Reaper &#45;&gt;Clear_Thread_Queue</title>
<path fill="none" stroke="black" d="M291.578,-303.176C318.977,-332.202 376.608,-389.095 436,-422 442.844,-425.792 450.203,-429.207 457.716,-432.266"/>
<polygon fill="black" stroke="black" points="456.698,-435.625 467.287,-435.952 459.213,-429.092 456.698,-435.625"/>
</g>
<!-- Reaper &#45;&gt;Yield  -->
<g id="edge28" class="edge"><title>Reaper &#45;&gt;Yield </title>
<path fill="none" stroke="black" d="M306.571,-285.394C333.87,-284.178 373.073,-278.526 400,-258 427.509,-237.03 409.008,-210.63 436,-189 454.054,-174.533 479.169,-167.778 499.837,-164.643"/>
<polygon fill="black" stroke="black" points="500.409,-168.098 509.877,-163.344 499.51,-161.156 500.409,-168.098"/>
</g>
<!-- Reaper &#45;&gt;Disable_Interrupts -->
<g id="edge20" class="edge"><title>Reaper &#45;&gt;Disable_Interrupts</title>
<path fill="none" stroke="black" d="M294.909,-303.415C323.543,-328.511 379.188,-372.246 436,-389 522.964,-414.645 549.599,-395.936 640,-389 663.643,-387.186 689.212,-383.775 712.383,-380.126"/>
<polygon fill="black" stroke="black" points="713.183,-383.542 722.498,-378.494 712.068,-376.631 713.183,-383.542"/>
</g>
<!-- Reaper &#45;&gt;Enable_Interrupts -->
<g id="edge27" class="edge"><title>Reaper &#45;&gt;Enable_Interrupts</title>
<path fill="none" stroke="black" d="M306.765,-283.331C387.076,-279.113 599.948,-267.931 714.134,-261.933"/>
<polygon fill="black" stroke="black" points="714.394,-265.424 724.197,-261.404 714.027,-258.434 714.394,-265.424"/>
</g>
<!-- Wait  -->
<g id="node19" class="node"><title>Wait </title>
<polygon fill="Wheat" stroke="black" points="565,-126 511,-126 511,-90 565,-90 565,-126"/>
<text text-anchor="middle" x="538" y="-104.2" font-family="Times,serif" font-size="16.00" fill="blue">Wait </text>
</g>
<!-- Reaper &#45;&gt;Wait  -->
<g id="edge21" class="edge"><title>Reaper &#45;&gt;Wait </title>
<path fill="none" stroke="black" d="M306.525,-286.652C334.558,-286.363 374.888,-281.366 400,-258 441.7,-219.199 395.252,-174.801 436,-135 453.072,-118.324 479.251,-111.656 500.678,-109.114"/>
<polygon fill="black" stroke="black" points="501.124,-112.588 510.755,-108.172 500.472,-105.618 501.124,-112.588"/>
</g>
<!-- Get_Next_In_Thread_Queue -->
<g id="node20" class="node"><title>Get_Next_In_Thread_Queue</title>
<polygon fill="Wheat" stroke="black" points="639.5,-326 436.5,-326 436.5,-290 639.5,-290 639.5,-326"/>
<text text-anchor="middle" x="538" y="-304.2" font-family="Times,serif" font-size="16.00" fill="blue">Get_Next_In_Thread_Queue</text>
</g>
<!-- Reaper &#45;&gt;Get_Next_In_Thread_Queue -->
<g id="edge29" class="edge"><title>Reaper &#45;&gt;Get_Next_In_Thread_Queue</title>
<path fill="none" stroke="black" d="M306.603,-287.774C336.402,-290.39 382.847,-294.467 426.252,-298.278"/>
<polygon fill="black" stroke="black" points="426.063,-301.775 436.33,-299.163 426.675,-294.801 426.063,-301.775"/>
</g>
<!-- Print -->
<g id="node21" class="node"><title>Print</title>
<polygon fill="Wheat" stroke="black" points="565,-234 511,-234 511,-198 565,-198 565,-234"/>
<text text-anchor="middle" x="538" y="-212.2" font-family="Times,serif" font-size="16.00" fill="blue">Print</text>
</g>
<!-- Reaper &#45;&gt;Print -->
<g id="edge30" class="edge"><title>Reaper &#45;&gt;Print</title>
<path fill="none" stroke="black" d="M306.511,-278.963C331.891,-273.916 368.419,-266.236 400,-258 419.171,-253.001 467.52,-237.964 501.318,-227.315"/>
<polygon fill="black" stroke="black" points="502.376,-230.651 510.859,-224.304 500.269,-223.976 502.376,-230.651"/>
</g>
<!-- Destroy_Thread  -->
<g id="node22" class="node"><title>Destroy_Thread </title>
<polygon fill="Wheat" stroke="black" points="600,-380 476,-380 476,-344 600,-344 600,-380"/>
<text text-anchor="middle" x="538" y="-358.2" font-family="Times,serif" font-size="16.00" fill="blue">Destroy_Thread </text>
</g>
<!-- Reaper &#45;&gt;Destroy_Thread  -->
<g id="edge31" class="edge"><title>Reaper &#45;&gt;Destroy_Thread </title>
<path fill="none" stroke="black" d="M306.658,-295.241C339.044,-305.621 390.869,-321.965 436,-335 445.613,-337.776 455.768,-340.609 465.788,-343.345"/>
<polygon fill="black" stroke="black" points="465.17,-346.803 475.737,-346.043 467.002,-340.047 465.17,-346.803"/>
</g>
<!-- Wait &#45;&gt;KASSERT -->
<g id="edge22" class="edge"><title>Wait &#45;&gt;KASSERT</title>
<path fill="none" stroke="black" d="M565.181,-96.8908C592.322,-86.0226 636.265,-70.2243 676,-64 776.272,-48.293 895.116,-60.5206 962.121,-70.1976"/>
<polygon fill="black" stroke="black" points="962.014,-73.7199 972.419,-71.7241 963.041,-66.7956 962.014,-73.7199"/>
</g>
<!-- Wait &#45;&gt;Interrupts_Enabled -->
<g id="edge23" class="edge"><title>Wait &#45;&gt;Interrupts_Enabled</title>
<path fill="none" stroke="black" d="M565.249,-110.14C592.815,-112.336 637.432,-115.74 676,-118 764.803,-123.205 866.789,-127.488 935.51,-130.126"/>
<polygon fill="black" stroke="black" points="935.698,-133.636 945.824,-130.52 935.965,-126.641 935.698,-133.636"/>
</g>
<!-- Wait &#45;&gt;Enqueue_Thread -->
<g id="edge24" class="edge"><title>Wait &#45;&gt;Enqueue_Thread</title>
<path fill="none" stroke="black" d="M565.047,-94.9898C592.082,-82.1026 635.942,-62.9016 676,-53 766.146,-30.7178 873.173,-22.6018 942.502,-19.6571"/>
<polygon fill="black" stroke="black" points="943.021,-23.1393 952.873,-19.2433 942.742,-16.1448 943.021,-23.1393"/>
</g>
<!-- Wait &#45;&gt;Schedule  -->
<g id="edge25" class="edge"><title>Wait &#45;&gt;Schedule </title>
<path fill="none" stroke="black" d="M565.079,-113.78C585.677,-118.63 615.015,-126.17 640,-135 656.508,-140.834 659.535,-145.044 676,-151 696.831,-158.535 720.333,-165.438 740.488,-170.888"/>
<polygon fill="black" stroke="black" points="739.823,-174.333 750.387,-173.522 741.623,-167.569 739.823,-174.333"/>
</g>
<!-- Destroy_Thread &#45;&gt;Disable_Interrupts -->
<g id="edge32" class="edge"><title>Destroy_Thread &#45;&gt;Disable_Interrupts</title>
<path fill="none" stroke="black" d="M600.157,-362.979C633.838,-363.517 675.973,-364.192 711.892,-364.766"/>
<polygon fill="black" stroke="black" points="712.278,-368.273 722.333,-364.933 712.39,-361.274 712.278,-368.273"/>
</g>
<!-- Destroy_Thread &#45;&gt;Enable_Interrupts -->
<g id="edge35" class="edge"><title>Destroy_Thread &#45;&gt;Enable_Interrupts</title>
<path fill="none" stroke="black" d="M600.156,-352.806C614.062,-348.832 628.198,-343.144 640,-335 662.538,-319.448 653.256,-300.25 676,-285 687.526,-277.272 701.019,-271.747 714.588,-267.8"/>
<polygon fill="black" stroke="black" points="715.68,-271.132 724.456,-265.196 713.893,-264.364 715.68,-271.132"/>
</g>
<!-- Free_Page -->
<g id="node23" class="node"><title>Free_Page</title>
<polygon fill="Wheat" stroke="black" points="831.5,-438 748.5,-438 748.5,-402 831.5,-402 831.5,-438"/>
<text text-anchor="middle" x="790" y="-416.2" font-family="Times,serif" font-size="16.00" fill="blue">Free_Page</text>
</g>
<!-- Destroy_Thread &#45;&gt;Free_Page -->
<g id="edge33" class="edge"><title>Destroy_Thread &#45;&gt;Free_Page</title>
<path fill="none" stroke="black" d="M600.157,-376.188C642.667,-386.051 698.644,-399.037 738.593,-408.306"/>
<polygon fill="black" stroke="black" points="737.854,-411.727 748.387,-410.578 739.436,-404.908 737.854,-411.727"/>
</g>
<!-- Remove_From_All_Thread_List -->
<g id="node24" class="node"><title>Remove_From_All_Thread_List</title>
<polygon fill="Wheat" stroke="black" points="904,-330 676,-330 676,-294 904,-294 904,-330"/>
<text text-anchor="middle" x="790" y="-308.2" font-family="Times,serif" font-size="16.00" fill="blue">Remove_From_All_Thread_List</text>
</g>
<!-- Destroy_Thread &#45;&gt;Remove_From_All_Thread_List -->
<g id="edge34" class="edge"><title>Destroy_Thread &#45;&gt;Remove_From_All_Thread_List</title>
<path fill="none" stroke="black" d="M600.157,-349.769C626.781,-344.444 658.687,-338.063 688.63,-332.074"/>
<polygon fill="black" stroke="black" points="689.579,-335.454 698.699,-330.06 688.206,-328.589 689.579,-335.454"/>
</g>
</g>
</svg>
