<?xml version="1.0" encoding="UTF-8" standalone="no"?>
<!DOCTYPE svg PUBLIC "-//W3C//DTD SVG 1.1//EN"
 "http://www.w3.org/Graphics/SVG/1.1/DTD/svg11.dtd">
<!-- Generated by graphviz version 2.36.0 (20140111.2315)
 -->
<!-- Title: G Pages: 1 -->
<svg width="408pt" height="1162pt"
 viewBox="0.00 0.00 408.00 1162.00" xmlns="http://www.w3.org/2000/svg" xmlns:xlink="http://www.w3.org/1999/xlink">
<g id="graph0" class="graph" transform="scale(1 1) rotate(0) translate(4 1158)">
<title>G</title>
<polygon fill="white" stroke="none" points="-4,4 -4,-1158 404,-1158 404,4 -4,4"/>
<!-- Main -->
<g id="node1" class="node"><title>Main</title>
<polygon fill="Wheat" stroke="black" points="54,-587 0,-587 0,-551 54,-551 54,-587"/>
<text text-anchor="middle" x="27" y="-565.2" font-family="Times,serif" font-size="16.00" fill="blue">Main</text>
</g>
<!-- Init_BSS -->
<g id="node2" class="node"><title>Init_BSS</title>
<polygon fill="Wheat" stroke="black" points="219,-1154 143,-1154 143,-1118 219,-1118 219,-1154"/>
<text text-anchor="middle" x="181" y="-1132.2" font-family="Times,serif" font-size="16.00" fill="blue">Init_BSS</text>
</g>
<!-- Main&#45;&gt;Init_BSS -->
<g id="edge1" class="edge"><title>Main&#45;&gt;Init_BSS</title>
<path fill="none" stroke="black" d="M28.914,-587.227C33.5621,-676.838 55.7063,-1068.02 90,-1109 100.564,-1121.62 116.781,-1128.49 132.554,-1132.18"/>
<polygon fill="black" stroke="black" points="132.307,-1135.69 142.792,-1134.17 133.645,-1128.82 132.307,-1135.69"/>
</g>
<!-- Init_Screen -->
<g id="node3" class="node"><title>Init_Screen</title>
<polygon fill="Wheat" stroke="black" points="226,-1100 136,-1100 136,-1064 226,-1064 226,-1100"/>
<text text-anchor="middle" x="181" y="-1078.2" font-family="Times,serif" font-size="16.00" fill="blue">Init_Screen</text>
</g>
<!-- Main&#45;&gt;Init_Screen -->
<g id="edge2" class="edge"><title>Main&#45;&gt;Init_Screen</title>
<path fill="none" stroke="black" d="M27.7723,-587.004C27.1376,-666.155 28.539,-982.49 90,-1055 99.1668,-1065.81 112.482,-1072.4 126.072,-1076.38"/>
<polygon fill="black" stroke="black" points="125.412,-1079.82 135.961,-1078.84 127.102,-1073.03 125.412,-1079.82"/>
</g>
<!-- Init_Mem -->
<g id="node4" class="node"><title>Init_Mem</title>
<polygon fill="Wheat" stroke="black" points="221.5,-1046 140.5,-1046 140.5,-1010 221.5,-1010 221.5,-1046"/>
<text text-anchor="middle" x="181" y="-1024.2" font-family="Times,serif" font-size="16.00" fill="blue">Init_Mem</text>
</g>
<!-- Main&#45;&gt;Init_Mem -->
<g id="edge3" class="edge"><title>Main&#45;&gt;Init_Mem</title>
<path fill="none" stroke="black" d="M28.0936,-587.208C28.8406,-661.078 35.3042,-937.486 90,-1001 100.217,-1012.86 115.423,-1019.63 130.441,-1023.45"/>
<polygon fill="black" stroke="black" points="129.716,-1026.87 140.229,-1025.56 131.191,-1020.03 129.716,-1026.87"/>
</g>
<!-- Init_CRC32 -->
<g id="node5" class="node"><title>Init_CRC32</title>
<polygon fill="Wheat" stroke="black" points="228.5,-992 133.5,-992 133.5,-956 228.5,-956 228.5,-992"/>
<text text-anchor="middle" x="181" y="-970.2" font-family="Times,serif" font-size="16.00" fill="blue">Init_CRC32</text>
</g>
<!-- Main&#45;&gt;Init_CRC32 -->
<g id="edge4" class="edge"><title>Main&#45;&gt;Init_CRC32</title>
<path fill="none" stroke="black" d="M28.5141,-587.444C30.7833,-655.642 42.0413,-892.425 90,-947 98.7526,-956.96 111.02,-963.317 123.688,-967.355"/>
<polygon fill="black" stroke="black" points="122.833,-970.75 133.402,-970.013 124.68,-963.998 122.833,-970.75"/>
</g>
<!-- Init_TSS -->
<g id="node6" class="node"><title>Init_TSS</title>
<polygon fill="Wheat" stroke="black" points="218.5,-938 143.5,-938 143.5,-902 218.5,-902 218.5,-938"/>
<text text-anchor="middle" x="181" y="-916.2" font-family="Times,serif" font-size="16.00" fill="blue">Init_TSS</text>
</g>
<!-- Main&#45;&gt;Init_TSS -->
<g id="edge5" class="edge"><title>Main&#45;&gt;Init_TSS</title>
<path fill="none" stroke="black" d="M29.0599,-587.322C32.9836,-648.912 48.655,-847.189 90,-893 101.028,-905.219 117.344,-912 133.066,-915.732"/>
<polygon fill="black" stroke="black" points="132.758,-919.24 143.25,-917.771 134.132,-912.376 132.758,-919.24"/>
</g>
<!-- Init_Interrupts -->
<g id="node7" class="node"><title>Init_Interrupts</title>
<polygon fill="Wheat" stroke="black" points="236,-884 126,-884 126,-848 236,-848 236,-884"/>
<text text-anchor="middle" x="181" y="-862.2" font-family="Times,serif" font-size="16.00" fill="blue">Init_Interrupts</text>
</g>
<!-- Main&#45;&gt;Init_Interrupts -->
<g id="edge6" class="edge"><title>Main&#45;&gt;Init_Interrupts</title>
<path fill="none" stroke="black" d="M29.8177,-587.273C35.5959,-641.802 55.2376,-801.874 90,-839 97.182,-846.67 106.448,-852.19 116.294,-856.156"/>
<polygon fill="black" stroke="black" points="115.268,-859.505 125.863,-859.502 117.578,-852.897 115.268,-859.505"/>
</g>
<!-- Init_VM -->
<g id="node8" class="node"><title>Init_VM</title>
<polygon fill="Wheat" stroke="black" points="217.5,-830 144.5,-830 144.5,-794 217.5,-794 217.5,-830"/>
<text text-anchor="middle" x="181" y="-808.2" font-family="Times,serif" font-size="16.00" fill="blue">Init_VM</text>
</g>
<!-- Main&#45;&gt;Init_VM -->
<g id="edge7" class="edge"><title>Main&#45;&gt;Init_VM</title>
<path fill="none" stroke="black" d="M27.7261,-587.209C28.1292,-628.378 35.0186,-729.359 90,-785 101.663,-796.803 118.267,-803.489 134.044,-807.261"/>
<polygon fill="black" stroke="black" points="133.733,-810.77 144.232,-809.344 135.135,-803.912 133.733,-810.77"/>
</g>
<!-- Init_Scheduler -->
<g id="node9" class="node"><title>Init_Scheduler</title>
<polygon fill="Wheat" stroke="black" points="236.5,-776 125.5,-776 125.5,-740 236.5,-740 236.5,-776"/>
<text text-anchor="middle" x="181" y="-754.2" font-family="Times,serif" font-size="16.00" fill="blue">Init_Scheduler</text>
</g>
<!-- Main&#45;&gt;Init_Scheduler -->
<g id="edge8" class="edge"><title>Main&#45;&gt;Init_Scheduler</title>
<path fill="none" stroke="black" d="M29.7761,-587.196C34.0114,-620.575 47.7401,-691.759 90,-731 97.3518,-737.827 106.365,-742.931 115.818,-746.748"/>
<polygon fill="black" stroke="black" points="114.777,-750.092 125.372,-750.151 117.126,-743.498 114.777,-750.092"/>
</g>
<!-- Init_Traps -->
<g id="node10" class="node"><title>Init_Traps</title>
<polygon fill="Wheat" stroke="black" points="222.5,-722 139.5,-722 139.5,-686 222.5,-686 222.5,-722"/>
<text text-anchor="middle" x="181" y="-700.2" font-family="Times,serif" font-size="16.00" fill="blue">Init_Traps</text>
</g>
<!-- Main&#45;&gt;Init_Traps -->
<g id="edge9" class="edge"><title>Main&#45;&gt;Init_Traps</title>
<path fill="none" stroke="black" d="M33.6459,-587.121C42.0627,-611.174 60.1878,-653.354 90,-677 101.313,-685.973 115.563,-691.969 129.365,-695.974"/>
<polygon fill="black" stroke="black" points="128.73,-699.425 139.289,-698.552 130.49,-692.65 128.73,-699.425"/>
</g>
<!-- Init_Timer -->
<g id="node11" class="node"><title>Init_Timer</title>
<polygon fill="Wheat" stroke="black" points="224,-668 138,-668 138,-632 224,-632 224,-668"/>
<text text-anchor="middle" x="181" y="-646.2" font-family="Times,serif" font-size="16.00" fill="blue">Init_Timer</text>
</g>
<!-- Main&#45;&gt;Init_Timer -->
<g id="edge10" class="edge"><title>Main&#45;&gt;Init_Timer</title>
<path fill="none" stroke="black" d="M44.6354,-587.035C56.3237,-598.755 72.876,-613.556 90,-623 101.725,-629.466 115.182,-634.561 128.057,-638.5"/>
<polygon fill="black" stroke="black" points="127.172,-641.888 137.75,-641.29 129.109,-635.161 127.172,-641.888"/>
</g>
<!-- Init_Keyboard -->
<g id="node12" class="node"><title>Init_Keyboard</title>
<polygon fill="Wheat" stroke="black" points="236,-614 126,-614 126,-578 236,-578 236,-614"/>
<text text-anchor="middle" x="181" y="-592.2" font-family="Times,serif" font-size="16.00" fill="blue">Init_Keyboard</text>
</g>
<!-- Main&#45;&gt;Init_Keyboard -->
<g id="edge11" class="edge"><title>Main&#45;&gt;Init_Keyboard</title>
<path fill="none" stroke="black" d="M54.1297,-573.641C71.2067,-576.675 94.2981,-580.777 116.041,-584.639"/>
<polygon fill="black" stroke="black" points="115.451,-588.089 125.909,-586.392 116.675,-581.197 115.451,-588.089"/>
</g>
<!-- Init_DMA -->
<g id="node13" class="node"><title>Init_DMA</title>
<polygon fill="Wheat" stroke="black" points="223,-560 139,-560 139,-524 223,-524 223,-560"/>
<text text-anchor="middle" x="181" y="-538.2" font-family="Times,serif" font-size="16.00" fill="blue">Init_DMA</text>
</g>
<!-- Main&#45;&gt;Init_DMA -->
<g id="edge12" class="edge"><title>Main&#45;&gt;Init_DMA</title>
<path fill="none" stroke="black" d="M54.1297,-564.359C74.5708,-560.728 103.629,-555.566 128.677,-551.117"/>
<polygon fill="black" stroke="black" points="129.534,-554.519 138.768,-549.324 128.31,-547.627 129.534,-554.519"/>
</g>
<!-- Init_Floppy -->
<g id="node14" class="node"><title>Init_Floppy</title>
<polygon fill="Wheat" stroke="black" points="228,-506 134,-506 134,-470 228,-470 228,-506"/>
<text text-anchor="middle" x="181" y="-484.2" font-family="Times,serif" font-size="16.00" fill="blue">Init_Floppy</text>
</g>
<!-- Main&#45;&gt;Init_Floppy -->
<g id="edge13" class="edge"><title>Main&#45;&gt;Init_Floppy</title>
<path fill="none" stroke="black" d="M44.6354,-550.965C56.3237,-539.245 72.876,-524.444 90,-515 100.49,-509.215 112.368,-504.527 123.974,-500.782"/>
<polygon fill="black" stroke="black" points="125.07,-504.108 133.623,-497.856 123.038,-497.409 125.07,-504.108"/>
</g>
<!-- Init_IDE -->
<g id="node15" class="node"><title>Init_IDE</title>
<polygon fill="Wheat" stroke="black" points="218,-452 144,-452 144,-416 218,-416 218,-452"/>
<text text-anchor="middle" x="181" y="-430.2" font-family="Times,serif" font-size="16.00" fill="blue">Init_IDE</text>
</g>
<!-- Main&#45;&gt;Init_IDE -->
<g id="edge14" class="edge"><title>Main&#45;&gt;Init_IDE</title>
<path fill="none" stroke="black" d="M33.6459,-550.879C42.0627,-526.826 60.1878,-484.646 90,-461 102.581,-451.021 118.794,-444.724 133.985,-440.753"/>
<polygon fill="black" stroke="black" points="134.832,-444.15 143.772,-438.464 133.238,-437.334 134.832,-444.15"/>
</g>
<!-- Init_PFAT -->
<g id="node16" class="node"><title>Init_PFAT</title>
<polygon fill="Wheat" stroke="black" points="224,-398 138,-398 138,-362 224,-362 224,-398"/>
<text text-anchor="middle" x="181" y="-376.2" font-family="Times,serif" font-size="16.00" fill="blue">Init_PFAT</text>
</g>
<!-- Main&#45;&gt;Init_PFAT -->
<g id="edge15" class="edge"><title>Main&#45;&gt;Init_PFAT</title>
<path fill="none" stroke="black" d="M29.7761,-550.804C34.0114,-517.425 47.7401,-446.241 90,-407 100.485,-397.264 114.35,-391.03 128.049,-387.041"/>
<polygon fill="black" stroke="black" points="129.119,-390.38 137.943,-384.516 127.388,-383.598 129.119,-390.38"/>
</g>
<!-- Init_GOSFS -->
<g id="node17" class="node"><title>Init_GOSFS</title>
<polygon fill="Wheat" stroke="black" points="229.5,-344 132.5,-344 132.5,-308 229.5,-308 229.5,-344"/>
<text text-anchor="middle" x="181" y="-322.2" font-family="Times,serif" font-size="16.00" fill="blue">Init_GOSFS</text>
</g>
<!-- Main&#45;&gt;Init_GOSFS -->
<g id="edge16" class="edge"><title>Main&#45;&gt;Init_GOSFS</title>
<path fill="none" stroke="black" d="M27.7261,-550.791C28.1292,-509.622 35.0186,-408.641 90,-353 98.8664,-344.027 110.588,-338.011 122.631,-333.985"/>
<polygon fill="black" stroke="black" points="123.689,-337.323 132.31,-331.164 121.73,-330.602 123.689,-337.323"/>
</g>
<!-- Mount_Root_Filesystem  -->
<g id="node18" class="node"><title>Mount_Root_Filesystem </title>
<polygon fill="Wheat" stroke="black" points="271.5,-290 90.5,-290 90.5,-254 271.5,-254 271.5,-290"/>
<text text-anchor="middle" x="181" y="-268.2" font-family="Times,serif" font-size="16.00" fill="blue">Mount_Root_Filesystem </text>
</g>
<!-- Main&#45;&gt;Mount_Root_Filesystem  -->
<g id="edge17" class="edge"><title>Main&#45;&gt;Mount_Root_Filesystem </title>
<path fill="none" stroke="black" d="M29.8177,-550.727C35.5959,-496.198 55.2376,-336.126 90,-299 90.7805,-298.166 91.5856,-297.358 92.4133,-296.575"/>
<polygon fill="black" stroke="black" points="94.8007,-299.147 100.423,-290.167 90.4281,-293.681 94.8007,-299.147"/>
</g>
<!-- Print -->
<g id="node20" class="node"><title>Print</title>
<polygon fill="Wheat" stroke="black" points="381,-240 327,-240 327,-204 381,-204 381,-240"/>
<text text-anchor="middle" x="354" y="-218.2" font-family="Times,serif" font-size="16.00" fill="blue">Print</text>
</g>
<!-- Main&#45;&gt;Print -->
<g id="edge23" class="edge"><title>Main&#45;&gt;Print</title>
<path fill="none" stroke="black" d="M28.7058,-550.778C31.5158,-488.614 44.0944,-286.453 90,-245 122.465,-215.684 252.725,-217.298 316.901,-220.016"/>
<polygon fill="black" stroke="black" points="316.827,-223.516 326.976,-220.475 317.145,-216.524 316.827,-223.516"/>
</g>
<!-- Set_Current_Attr -->
<g id="node22" class="node"><title>Set_Current_Attr</title>
<polygon fill="Wheat" stroke="black" points="245,-198 117,-198 117,-162 245,-162 245,-198"/>
<text text-anchor="middle" x="181" y="-176.2" font-family="Times,serif" font-size="16.00" fill="blue">Set_Current_Attr</text>
</g>
<!-- Main&#45;&gt;Set_Current_Attr -->
<g id="edge21" class="edge"><title>Main&#45;&gt;Set_Current_Attr</title>
<path fill="none" stroke="black" d="M28.7927,-550.754C31.9813,-485.426 45.8986,-264.299 90,-212 94.9243,-206.16 100.99,-201.386 107.628,-197.483"/>
<polygon fill="black" stroke="black" points="109.682,-200.363 116.979,-192.683 106.485,-194.136 109.682,-200.363"/>
</g>
<!-- ATTRIB -->
<g id="node23" class="node"><title>ATTRIB</title>
<polygon fill="Wheat" stroke="black" points="218,-144 144,-144 144,-108 218,-108 218,-144"/>
<text text-anchor="middle" x="181" y="-122.2" font-family="Times,serif" font-size="16.00" fill="blue">ATTRIB</text>
</g>
<!-- Main&#45;&gt;ATTRIB -->
<g id="edge22" class="edge"><title>Main&#45;&gt;ATTRIB</title>
<path fill="none" stroke="black" d="M28.206,-550.731C29.3877,-478.504 37.3023,-213.86 90,-153 101.054,-140.234 117.884,-133.378 134.011,-129.739"/>
<polygon fill="black" stroke="black" points="134.73,-133.165 143.904,-127.865 133.427,-126.287 134.73,-133.165"/>
</g>
<!-- Spawn_Init_Process  -->
<g id="node24" class="node"><title>Spawn_Init_Process </title>
<polygon fill="Wheat" stroke="black" points="256.5,-90 105.5,-90 105.5,-54 256.5,-54 256.5,-90"/>
<text text-anchor="middle" x="181" y="-68.2" font-family="Times,serif" font-size="16.00" fill="blue">Spawn_Init_Process </text>
</g>
<!-- Main&#45;&gt;Spawn_Init_Process  -->
<g id="edge24" class="edge"><title>Main&#45;&gt;Spawn_Init_Process </title>
<path fill="none" stroke="black" d="M27.8589,-550.806C27.6242,-472.97 30.5798,-168.799 90,-99 92.0323,-96.6127 94.2667,-94.4317 96.6613,-92.4395"/>
<polygon fill="black" stroke="black" points="99.1634,-94.9614 105.36,-86.3677 95.1568,-89.2214 99.1634,-94.9614"/>
</g>
<!-- Exit -->
<g id="node26" class="node"><title>Exit</title>
<polygon fill="Wheat" stroke="black" points="208,-36 154,-36 154,-0 208,-0 208,-36"/>
<text text-anchor="middle" x="181" y="-14.2" font-family="Times,serif" font-size="16.00" fill="blue">Exit</text>
</g>
<!-- Main&#45;&gt;Exit -->
<g id="edge26" class="edge"><title>Main&#45;&gt;Exit</title>
<path fill="none" stroke="black" d="M27.5814,-550.728C26.0448,-467.359 23.8696,-123.743 90,-45 103.101,-29.4006 124.835,-22.5953 143.664,-19.7165"/>
<polygon fill="black" stroke="black" points="144.247,-23.1714 153.751,-18.4902 143.402,-16.2226 144.247,-23.1714"/>
</g>
<!-- Mount -->
<g id="node19" class="node"><title>Mount</title>
<polygon fill="Wheat" stroke="black" points="384,-348 324,-348 324,-312 384,-312 384,-348"/>
<text text-anchor="middle" x="354" y="-326.2" font-family="Times,serif" font-size="16.00" fill="blue">Mount</text>
</g>
<!-- Mount_Root_Filesystem &#45;&gt;Mount -->
<g id="edge18" class="edge"><title>Mount_Root_Filesystem &#45;&gt;Mount</title>
<path fill="none" stroke="black" d="M244.647,-290.142C253.855,-292.998 263.199,-296 272,-299 285.992,-303.769 301.164,-309.439 314.554,-314.618"/>
<polygon fill="black" stroke="black" points="313.358,-317.908 323.946,-318.282 315.902,-311.387 313.358,-317.908"/>
</g>
<!-- Mount_Root_Filesystem &#45;&gt;Print -->
<g id="edge19" class="edge"><title>Mount_Root_Filesystem &#45;&gt;Print</title>
<path fill="none" stroke="black" d="M243.735,-253.949C268.234,-246.785 295.562,-238.795 316.759,-232.597"/>
<polygon fill="black" stroke="black" points="318.017,-235.876 326.633,-229.71 316.052,-229.157 318.017,-235.876"/>
</g>
<!-- Init_Paging -->
<g id="node21" class="node"><title>Init_Paging</title>
<polygon fill="Wheat" stroke="black" points="400,-294 308,-294 308,-258 400,-258 400,-294"/>
<text text-anchor="middle" x="354" y="-272.2" font-family="Times,serif" font-size="16.00" fill="blue">Init_Paging</text>
</g>
<!-- Mount_Root_Filesystem &#45;&gt;Init_Paging -->
<g id="edge20" class="edge"><title>Mount_Root_Filesystem &#45;&gt;Init_Paging</title>
<path fill="none" stroke="black" d="M271.507,-274.094C280.469,-274.303 289.372,-274.512 297.821,-274.709"/>
<polygon fill="black" stroke="black" points="297.797,-278.21 307.876,-274.944 297.961,-271.211 297.797,-278.21"/>
</g>
<!-- TODO -->
<g id="node25" class="node"><title>TODO</title>
<polygon fill="Wheat" stroke="black" points="384,-90 324,-90 324,-54 384,-54 384,-90"/>
<text text-anchor="middle" x="354" y="-68.2" font-family="Times,serif" font-size="16.00" fill="blue">TODO</text>
</g>
<!-- Spawn_Init_Process &#45;&gt;TODO -->
<g id="edge25" class="edge"><title>Spawn_Init_Process &#45;&gt;TODO</title>
<path fill="none" stroke="black" d="M256.506,-72C276.182,-72 296.649,-72 313.643,-72"/>
<polygon fill="black" stroke="black" points="313.738,-75.5001 323.738,-72 313.738,-68.5001 313.738,-75.5001"/>
</g>
</g>
</svg>
