<?xml version="1.0" encoding="UTF-8" standalone="no"?>
<!DOCTYPE svg PUBLIC "-//W3C//DTD SVG 1.1//EN"
 "http://www.w3.org/Graphics/SVG/1.1/DTD/svg11.dtd">
<!-- Generated by graphviz version 2.36.0 (20140111.2315)
 -->
<!-- Title: G Pages: 1 -->
<svg width="1338pt" height="1793pt"
 viewBox="0.00 0.00 1338.00 1793.42" xmlns="http://www.w3.org/2000/svg" xmlns:xlink="http://www.w3.org/1999/xlink">
<g id="graph0" class="graph" transform="scale(1 1) rotate(0) translate(4 1789.42)">
<title>G</title>
<polygon fill="white" stroke="none" points="-4,4 -4,-1789.42 1334,-1789.42 1334,4 -4,4"/>
<!-- Dump_All_Thread_List -->
<g id="node1" class="node"><title>Dump_All_Thread_List</title>
<polygon fill="Wheat" stroke="black" points="1044,-1623.42 872,-1623.42 872,-1587.42 1044,-1587.42 1044,-1623.42"/>
<text text-anchor="middle" x="958" y="-1601.62" font-family="Times,serif" font-size="16.00" fill="blue">Dump_All_Thread_List</text>
</g>
<!-- Begin_Int_Atomic -->
<g id="node2" class="node"><title>Begin_Int_Atomic</title>
<polygon fill="Wheat" stroke="black" points="1287.5,-1569.42 1150.5,-1569.42 1150.5,-1533.42 1287.5,-1533.42 1287.5,-1569.42"/>
<text text-anchor="middle" x="1219" y="-1547.62" font-family="Times,serif" font-size="16.00" fill="blue">Begin_Int_Atomic</text>
</g>
<!-- Dump_All_Thread_List&#45;&gt;Begin_Int_Atomic -->
<g id="edge1" class="edge"><title>Dump_All_Thread_List&#45;&gt;Begin_Int_Atomic</title>
<path fill="none" stroke="black" d="M1044.17,-1587.66C1075.16,-1581.2 1110.01,-1573.93 1140.33,-1567.61"/>
<polygon fill="black" stroke="black" points="1141.34,-1570.98 1150.42,-1565.51 1139.92,-1564.12 1141.34,-1570.98"/>
</g>
<!-- Get_Front_Of_All_Thread_List -->
<g id="node3" class="node"><title>Get_Front_Of_All_Thread_List</title>
<polygon fill="Wheat" stroke="black" points="1330,-1785.42 1108,-1785.42 1108,-1749.42 1330,-1749.42 1330,-1785.42"/>
<text text-anchor="middle" x="1219" y="-1763.62" font-family="Times,serif" font-size="16.00" fill="blue">Get_Front_Of_All_Thread_List</text>
</g>
<!-- Dump_All_Thread_List&#45;&gt;Get_Front_Of_All_Thread_List -->
<g id="edge2" class="edge"><title>Dump_All_Thread_List&#45;&gt;Get_Front_Of_All_Thread_List</title>
<path fill="none" stroke="black" d="M973.866,-1623.82C998.555,-1653.11 1050.97,-1710.12 1108,-1740.42 1111.47,-1742.26 1115.06,-1743.98 1118.74,-1745.58"/>
<polygon fill="black" stroke="black" points="1117.47,-1748.84 1128.05,-1749.34 1120.08,-1742.35 1117.47,-1748.84"/>
</g>
<!-- Print -->
<g id="node4" class="node"><title>Print</title>
<polygon fill="Wheat" stroke="black" points="1246,-1515.42 1192,-1515.42 1192,-1479.42 1246,-1479.42 1246,-1515.42"/>
<text text-anchor="middle" x="1219" y="-1493.62" font-family="Times,serif" font-size="16.00" fill="blue">Print</text>
</g>
<!-- Dump_All_Thread_List&#45;&gt;Print -->
<g id="edge3" class="edge"><title>Dump_All_Thread_List&#45;&gt;Print</title>
<path fill="none" stroke="black" d="M1044.1,-1592.52C1054,-1588.91 1063.56,-1584.3 1072,-1578.42 1095.66,-1561.93 1084.39,-1540.98 1108,-1524.42 1129.64,-1509.24 1158.88,-1502.56 1181.77,-1499.63"/>
<polygon fill="black" stroke="black" points="1182.24,-1503.1 1191.8,-1498.54 1181.47,-1496.14 1182.24,-1503.1"/>
</g>
<!-- Get_Prev_In_All_Thread_List -->
<g id="node5" class="node"><title>Get_Prev_In_All_Thread_List</title>
<polygon fill="Wheat" stroke="black" points="1325.5,-1731.42 1112.5,-1731.42 1112.5,-1695.42 1325.5,-1695.42 1325.5,-1731.42"/>
<text text-anchor="middle" x="1219" y="-1709.62" font-family="Times,serif" font-size="16.00" fill="blue">Get_Prev_In_All_Thread_List</text>
</g>
<!-- Dump_All_Thread_List&#45;&gt;Get_Prev_In_All_Thread_List -->
<g id="edge4" class="edge"><title>Dump_All_Thread_List&#45;&gt;Get_Prev_In_All_Thread_List</title>
<path fill="none" stroke="black" d="M987.064,-1623.53C1016.26,-1641.68 1063.79,-1669.31 1108,-1686.42 1113.46,-1688.53 1119.14,-1690.52 1124.92,-1692.38"/>
<polygon fill="black" stroke="black" points="1124.11,-1695.8 1134.7,-1695.4 1126.18,-1689.11 1124.11,-1695.8"/>
</g>
<!-- Get_Next_In_All_Thread_List -->
<g id="node6" class="node"><title>Get_Next_In_All_Thread_List</title>
<polygon fill="Wheat" stroke="black" points="1326.5,-1677.42 1111.5,-1677.42 1111.5,-1641.42 1326.5,-1641.42 1326.5,-1677.42"/>
<text text-anchor="middle" x="1219" y="-1655.62" font-family="Times,serif" font-size="16.00" fill="blue">Get_Next_In_All_Thread_List</text>
</g>
<!-- Dump_All_Thread_List&#45;&gt;Get_Next_In_All_Thread_List -->
<g id="edge5" class="edge"><title>Dump_All_Thread_List&#45;&gt;Get_Next_In_All_Thread_List</title>
<path fill="none" stroke="black" d="M1044.17,-1623.17C1068.9,-1628.33 1096.08,-1634 1121.45,-1639.29"/>
<polygon fill="black" stroke="black" points="1120.95,-1642.76 1131.45,-1641.37 1122.38,-1635.91 1120.95,-1642.76"/>
</g>
<!-- KASSERT -->
<g id="node7" class="node"><title>KASSERT</title>
<polygon fill="Wheat" stroke="black" points="1262.5,-1279.42 1175.5,-1279.42 1175.5,-1243.42 1262.5,-1243.42 1262.5,-1279.42"/>
<text text-anchor="middle" x="1219" y="-1257.62" font-family="Times,serif" font-size="16.00" fill="blue">KASSERT</text>
</g>
<!-- Dump_All_Thread_List&#45;&gt;KASSERT -->
<g id="edge6" class="edge"><title>Dump_All_Thread_List&#45;&gt;KASSERT</title>
<path fill="none" stroke="black" d="M1044.04,-1595.26C1054.3,-1591.23 1063.97,-1585.78 1072,-1578.42 1109.3,-1544.23 1088.15,-1516.96 1108,-1470.42 1136.81,-1402.85 1179.17,-1327.51 1202,-1288.35"/>
<polygon fill="black" stroke="black" points="1205.06,-1290.05 1207.1,-1279.66 1199.02,-1286.51 1205.06,-1290.05"/>
</g>
<!-- End_Int_Atomic -->
<g id="node8" class="node"><title>End_Int_Atomic</title>
<polygon fill="Wheat" stroke="black" points="1281.5,-1623.42 1156.5,-1623.42 1156.5,-1587.42 1281.5,-1587.42 1281.5,-1623.42"/>
<text text-anchor="middle" x="1219" y="-1601.62" font-family="Times,serif" font-size="16.00" fill="blue">End_Int_Atomic</text>
</g>
<!-- Dump_All_Thread_List&#45;&gt;End_Int_Atomic -->
<g id="edge7" class="edge"><title>Dump_All_Thread_List&#45;&gt;End_Int_Atomic</title>
<path fill="none" stroke="black" d="M1044.17,-1605.42C1077.16,-1605.42 1114.52,-1605.42 1146.13,-1605.42"/>
<polygon fill="black" stroke="black" points="1146.17,-1608.92 1156.17,-1605.42 1146.17,-1601.92 1146.17,-1608.92"/>
</g>
<!-- Exit  -->
<g id="node9" class="node"><title>Exit </title>
<polygon fill="Wheat" stroke="black" points="101,-285.418 47,-285.418 47,-249.418 101,-249.418 101,-285.418"/>
<text text-anchor="middle" x="74" y="-263.618" font-family="Times,serif" font-size="16.00" fill="blue">Exit </text>
</g>
<!-- Exit &#45;&gt;KASSERT -->
<g id="edge37" class="edge"><title>Exit &#45;&gt;KASSERT</title>
<path fill="none" stroke="black" d="M77.6639,-285.768C98.2604,-424.226 237.374,-1299.42 463,-1299.42 463,-1299.42 463,-1299.42 718,-1299.42 881.459,-1299.42 1074.12,-1278.98 1165.21,-1268.08"/>
<polygon fill="black" stroke="black" points="1165.77,-1271.54 1175.28,-1266.86 1164.93,-1264.59 1165.77,-1271.54"/>
</g>
<!-- Interrupts_Enabled -->
<g id="node10" class="node"><title>Interrupts_Enabled</title>
<polygon fill="Wheat" stroke="black" points="1289,-642.418 1149,-642.418 1149,-606.418 1289,-606.418 1289,-642.418"/>
<text text-anchor="middle" x="1219" y="-620.618" font-family="Times,serif" font-size="16.00" fill="blue">Interrupts_Enabled</text>
</g>
<!-- Exit &#45;&gt;Interrupts_Enabled -->
<g id="edge8" class="edge"><title>Exit &#45;&gt;Interrupts_Enabled</title>
<path fill="none" stroke="black" d="M90.2889,-249.291C138.718,-194.029 295.458,-31.418 463,-31.418 463,-31.418 463,-31.418 718,-31.418 875.757,-31.418 959.837,53.5184 1072,-57.418 1139.55,-124.226 1073.34,-394.961 1108,-483.418 1126.04,-529.461 1164.21,-572.792 1190.48,-598.962"/>
<polygon fill="black" stroke="black" points="1188.29,-601.709 1197.88,-606.197 1193.18,-596.704 1188.29,-601.709"/>
</g>
<!-- Disable_Interrupts -->
<g id="node11" class="node"><title>Disable_Interrupts</title>
<polygon fill="Wheat" stroke="black" points="1025.5,-217.418 890.5,-217.418 890.5,-181.418 1025.5,-181.418 1025.5,-217.418"/>
<text text-anchor="middle" x="958" y="-195.618" font-family="Times,serif" font-size="16.00" fill="blue">Disable_Interrupts</text>
</g>
<!-- Exit &#45;&gt;Disable_Interrupts -->
<g id="edge9" class="edge"><title>Exit &#45;&gt;Disable_Interrupts</title>
<path fill="none" stroke="black" d="M101.213,-255.603C179.123,-221.215 416.883,-121.533 626,-88.418 705.893,-75.7662 739.757,-44.9907 808,-88.418 839.872,-108.7 815.421,-140.711 844,-165.418 854.538,-174.528 867.45,-181.198 880.732,-186.08"/>
<polygon fill="black" stroke="black" points="879.845,-189.474 890.439,-189.329 882.067,-182.836 879.845,-189.474"/>
</g>
<!-- Tlocal_Exit  -->
<g id="node12" class="node"><title>Tlocal_Exit </title>
<polygon fill="Wheat" stroke="black" points="765,-263.418 669,-263.418 669,-227.418 765,-227.418 765,-263.418"/>
<text text-anchor="middle" x="717" y="-241.618" font-family="Times,serif" font-size="16.00" fill="blue">Tlocal_Exit </text>
</g>
<!-- Exit &#45;&gt;Tlocal_Exit  -->
<g id="edge10" class="edge"><title>Exit &#45;&gt;Tlocal_Exit </title>
<path fill="none" stroke="black" d="M101.347,-263.188C123.372,-259.856 155.645,-255.446 184,-253.418 356.46,-241.085 561.138,-242.51 658.721,-244.168"/>
<polygon fill="black" stroke="black" points="658.894,-247.671 668.954,-244.349 659.018,-240.672 658.894,-247.671"/>
</g>
<!-- Wake_Up  -->
<g id="node14" class="node"><title>Wake_Up </title>
<polygon fill="Wheat" stroke="black" points="759.5,-875.418 674.5,-875.418 674.5,-839.418 759.5,-839.418 759.5,-875.418"/>
<text text-anchor="middle" x="717" y="-853.618" font-family="Times,serif" font-size="16.00" fill="blue">Wake_Up </text>
</g>
<!-- Exit &#45;&gt;Wake_Up  -->
<g id="edge15" class="edge"><title>Exit &#45;&gt;Wake_Up </title>
<path fill="none" stroke="black" d="M81.8689,-285.687C106.448,-348.645 196.179,-558.827 338,-670.418 442.29,-752.477 588.383,-812.077 664.809,-839.887"/>
<polygon fill="black" stroke="black" points="663.63,-843.182 674.225,-843.28 666.003,-836.596 663.63,-843.182"/>
</g>
<!-- Detach_Thread  -->
<g id="node19" class="node"><title>Detach_Thread </title>
<polygon fill="Wheat" stroke="black" points="302,-699.418 184,-699.418 184,-663.418 302,-663.418 302,-699.418"/>
<text text-anchor="middle" x="243" y="-677.618" font-family="Times,serif" font-size="16.00" fill="blue">Detach_Thread </text>
</g>
<!-- Exit &#45;&gt;Detach_Thread  -->
<g id="edge24" class="edge"><title>Exit &#45;&gt;Detach_Thread </title>
<path fill="none" stroke="black" d="M80.4588,-285.724C95.0189,-333.794 136.893,-467.224 184,-573.418 196.554,-601.719 213.569,-632.73 225.922,-654.233"/>
<polygon fill="black" stroke="black" points="223.027,-656.218 231.069,-663.114 229.083,-652.707 223.027,-656.218"/>
</g>
<!-- Schedule  -->
<g id="node21" class="node"><title>Schedule </title>
<polygon fill="Wheat" stroke="black" points="997.5,-447.418 918.5,-447.418 918.5,-411.418 997.5,-411.418 997.5,-447.418"/>
<text text-anchor="middle" x="958" y="-425.618" font-family="Times,serif" font-size="16.00" fill="blue">Schedule </text>
</g>
<!-- Exit &#45;&gt;Schedule  -->
<g id="edge32" class="edge"><title>Exit &#45;&gt;Schedule </title>
<path fill="none" stroke="black" d="M101.222,-269.619C215.649,-279.419 671.599,-320.526 808,-364.418 824.844,-369.838 827.854,-374.18 844,-381.418 865.24,-390.94 888.922,-401.072 909.097,-409.562"/>
<polygon fill="black" stroke="black" points="907.819,-412.822 918.395,-413.463 910.528,-406.367 907.819,-412.822"/>
</g>
<!-- Tlocal_Exit &#45;&gt;KASSERT -->
<g id="edge11" class="edge"><title>Tlocal_Exit &#45;&gt;KASSERT</title>
<path fill="none" stroke="black" d="M765.399,-249.229C781.188,-252.914 797.427,-259.782 808,-272.418 898.143,-380.149 777.259,-462.816 844,-586.418 906.672,-702.485 1003.57,-663.651 1072,-776.418 1110.94,-840.586 1087.77,-869.138 1108,-941.418 1138.79,-1051.39 1186.25,-1178.87 1207.31,-1233.85"/>
<polygon fill="black" stroke="black" points="1204.07,-1235.18 1210.92,-1243.26 1210.6,-1232.67 1204.07,-1235.18"/>
</g>
<!-- Tlocal_Exit &#45;&gt;Interrupts_Enabled -->
<g id="edge12" class="edge"><title>Tlocal_Exit &#45;&gt;Interrupts_Enabled</title>
<path fill="none" stroke="black" d="M765.242,-241.802C840.973,-238.784 989.397,-244.747 1072,-327.418 1122.29,-377.753 1077.39,-419.182 1108,-483.418 1129.39,-528.316 1167.08,-572.233 1192.3,-598.817"/>
<polygon fill="black" stroke="black" points="1189.92,-601.39 1199.37,-606.167 1194.96,-596.535 1189.92,-601.39"/>
</g>
<!-- Tlocal_Exit &#45;&gt;Disable_Interrupts -->
<g id="edge14" class="edge"><title>Tlocal_Exit &#45;&gt;Disable_Interrupts</title>
<path fill="none" stroke="black" d="M765.219,-236.33C798.062,-230.009 842.573,-221.441 880.447,-214.152"/>
<polygon fill="black" stroke="black" points="881.269,-217.558 890.428,-212.231 879.946,-210.684 881.269,-217.558"/>
</g>
<!-- Enable_Interrupts -->
<g id="node13" class="node"><title>Enable_Interrupts</title>
<polygon fill="Wheat" stroke="black" points="1023.5,-372.418 892.5,-372.418 892.5,-336.418 1023.5,-336.418 1023.5,-372.418"/>
<text text-anchor="middle" x="958" y="-350.618" font-family="Times,serif" font-size="16.00" fill="blue">Enable_Interrupts</text>
</g>
<!-- Tlocal_Exit &#45;&gt;Enable_Interrupts -->
<g id="edge13" class="edge"><title>Tlocal_Exit &#45;&gt;Enable_Interrupts</title>
<path fill="none" stroke="black" d="M765.373,-257.588C779.319,-261.714 794.462,-266.737 808,-272.418 847.603,-289.035 890.303,-313.241 919.797,-331.047"/>
<polygon fill="black" stroke="black" points="918.147,-334.14 928.508,-336.353 921.788,-328.162 918.147,-334.14"/>
</g>
<!-- Wake_Up &#45;&gt;KASSERT -->
<g id="edge16" class="edge"><title>Wake_Up &#45;&gt;KASSERT</title>
<path fill="none" stroke="black" d="M741.687,-875.626C761.547,-891.892 789.543,-917.285 808,-944.418 831.536,-979.018 811.526,-1005.03 844,-1031.42 924.025,-1096.45 983.935,-1020.77 1072,-1074.42 1136.45,-1113.68 1183.43,-1192.54 1204.94,-1234.19"/>
<polygon fill="black" stroke="black" points="1201.86,-1235.87 1209.5,-1243.22 1208.11,-1232.71 1201.86,-1235.87"/>
</g>
<!-- Wake_Up &#45;&gt;Interrupts_Enabled -->
<g id="edge17" class="edge"><title>Wake_Up &#45;&gt;Interrupts_Enabled</title>
<path fill="none" stroke="black" d="M759.504,-848.276C775.702,-843.333 793.761,-836.006 808,-825.418 829.685,-809.293 822.313,-792.54 844,-776.418 930.303,-712.261 972.825,-736.997 1072,-695.418 1107.18,-680.668 1145.97,-661.667 1174.73,-647.034"/>
<polygon fill="black" stroke="black" points="1176.38,-650.119 1183.69,-642.448 1173.19,-643.887 1176.38,-650.119"/>
</g>
<!-- Get_Next_In_Thread_Queue -->
<g id="node15" class="node"><title>Get_Next_In_Thread_Queue</title>
<polygon fill="Wheat" stroke="black" points="1320.5,-878.418 1117.5,-878.418 1117.5,-842.418 1320.5,-842.418 1320.5,-878.418"/>
<text text-anchor="middle" x="1219" y="-856.618" font-family="Times,serif" font-size="16.00" fill="blue">Get_Next_In_Thread_Queue</text>
</g>
<!-- Wake_Up &#45;&gt;Get_Next_In_Thread_Queue -->
<g id="edge18" class="edge"><title>Wake_Up &#45;&gt;Get_Next_In_Thread_Queue</title>
<path fill="none" stroke="black" d="M759.77,-857.669C835.447,-858.123 997.538,-859.095 1107.19,-859.753"/>
<polygon fill="black" stroke="black" points="1107.28,-863.254 1117.3,-859.814 1107.32,-856.254 1107.28,-863.254"/>
</g>
<!-- Make_Runnable  -->
<g id="node16" class="node"><title>Make_Runnable </title>
<polygon fill="Wheat" stroke="black" points="1021,-821.418 895,-821.418 895,-785.418 1021,-785.418 1021,-821.418"/>
<text text-anchor="middle" x="958" y="-799.618" font-family="Times,serif" font-size="16.00" fill="blue">Make_Runnable </text>
</g>
<!-- Wake_Up &#45;&gt;Make_Runnable  -->
<g id="edge19" class="edge"><title>Wake_Up &#45;&gt;Make_Runnable </title>
<path fill="none" stroke="black" d="M759.631,-848.012C794.102,-840.223 843.885,-828.975 884.828,-819.725"/>
<polygon fill="black" stroke="black" points="885.779,-823.098 894.761,-817.48 884.236,-816.27 885.779,-823.098"/>
</g>
<!-- Clear_Thread_Queue -->
<g id="node18" class="node"><title>Clear_Thread_Queue</title>
<polygon fill="Wheat" stroke="black" points="1034.5,-577.418 881.5,-577.418 881.5,-541.418 1034.5,-541.418 1034.5,-577.418"/>
<text text-anchor="middle" x="958" y="-555.618" font-family="Times,serif" font-size="16.00" fill="blue">Clear_Thread_Queue</text>
</g>
<!-- Wake_Up &#45;&gt;Clear_Thread_Queue -->
<g id="edge23" class="edge"><title>Wake_Up &#45;&gt;Clear_Thread_Queue</title>
<path fill="none" stroke="black" d="M734.631,-839.126C752.982,-818.773 783.201,-784.754 808,-754.418 856.181,-695.479 909.689,-623.821 937.618,-585.911"/>
<polygon fill="black" stroke="black" points="940.722,-587.597 943.826,-577.467 935.082,-583.451 940.722,-587.597"/>
</g>
<!-- Make_Runnable &#45;&gt;KASSERT -->
<g id="edge20" class="edge"><title>Make_Runnable &#45;&gt;KASSERT</title>
<path fill="none" stroke="black" d="M975.902,-821.482C999.479,-847.306 1042.64,-896.919 1072,-944.418 1134.23,-1045.1 1186.5,-1176.7 1207.77,-1233.42"/>
<polygon fill="black" stroke="black" points="1204.61,-1234.96 1211.38,-1243.11 1211.17,-1232.52 1204.61,-1234.96"/>
</g>
<!-- Make_Runnable &#45;&gt;Interrupts_Enabled -->
<g id="edge21" class="edge"><title>Make_Runnable &#45;&gt;Interrupts_Enabled</title>
<path fill="none" stroke="black" d="M1021.15,-791.929C1038.36,-787.153 1056.54,-780.526 1072,-771.418 1125.48,-739.909 1173.21,-684.078 1198.63,-651.036"/>
<polygon fill="black" stroke="black" points="1201.65,-652.843 1204.9,-642.758 1196.07,-648.617 1201.65,-652.843"/>
</g>
<!-- Enqueue_Thread -->
<g id="node17" class="node"><title>Enqueue_Thread</title>
<polygon fill="Wheat" stroke="black" points="1282,-932.418 1156,-932.418 1156,-896.418 1282,-896.418 1282,-932.418"/>
<text text-anchor="middle" x="1219" y="-910.618" font-family="Times,serif" font-size="16.00" fill="blue">Enqueue_Thread</text>
</g>
<!-- Make_Runnable &#45;&gt;Enqueue_Thread -->
<g id="edge22" class="edge"><title>Make_Runnable &#45;&gt;Enqueue_Thread</title>
<path fill="none" stroke="black" d="M1021.09,-812.873C1038.67,-817.623 1057.07,-824.747 1072,-835.418 1094.87,-851.764 1084.85,-871.477 1108,-887.418 1119.34,-895.225 1132.7,-900.781 1146.14,-904.734"/>
<polygon fill="black" stroke="black" points="1145.34,-908.143 1155.9,-907.338 1147.14,-901.379 1145.34,-908.143"/>
</g>
<!-- Detach_Thread &#45;&gt;KASSERT -->
<g id="edge25" class="edge"><title>Detach_Thread &#45;&gt;KASSERT</title>
<path fill="none" stroke="black" d="M249.59,-699.574C261.621,-736.779 292.607,-823.311 338,-884.418 440.124,-1021.9 479.927,-1051.02 626,-1140.42 801.742,-1247.98 1056.3,-1261.72 1165.28,-1262.28"/>
<polygon fill="black" stroke="black" points="1165.35,-1265.78 1175.36,-1262.3 1165.37,-1258.78 1165.35,-1265.78"/>
</g>
<!-- Detach_Thread &#45;&gt;Interrupts_Enabled -->
<g id="edge26" class="edge"><title>Detach_Thread &#45;&gt;Interrupts_Enabled</title>
<path fill="none" stroke="black" d="M264.453,-663.259C282.516,-648.257 310.23,-627.663 338,-616.418 344.603,-613.744 836.9,-533.003 844,-532.418 944.991,-524.092 974.645,-504.303 1072,-532.418 1117.32,-545.507 1162.12,-577.299 1189.9,-599.835"/>
<polygon fill="black" stroke="black" points="1187.68,-602.537 1197.61,-606.211 1192.14,-597.142 1187.68,-602.537"/>
</g>
<!-- Reap_Thread  -->
<g id="node20" class="node"><title>Reap_Thread </title>
<polygon fill="Wheat" stroke="black" points="517,-875.418 411,-875.418 411,-839.418 517,-839.418 517,-875.418"/>
<text text-anchor="middle" x="464" y="-853.618" font-family="Times,serif" font-size="16.00" fill="blue">Reap_Thread </text>
</g>
<!-- Detach_Thread &#45;&gt;Reap_Thread  -->
<g id="edge27" class="edge"><title>Detach_Thread &#45;&gt;Reap_Thread </title>
<path fill="none" stroke="black" d="M251.164,-699.418C263.996,-729.331 293.762,-789.166 338,-821.418 356.274,-834.741 379.379,-843.149 400.739,-848.449"/>
<polygon fill="black" stroke="black" points="400.2,-851.917 410.729,-850.741 401.765,-845.094 400.2,-851.917"/>
</g>
<!-- Reap_Thread &#45;&gt;KASSERT -->
<g id="edge28" class="edge"><title>Reap_Thread &#45;&gt;KASSERT</title>
<path fill="none" stroke="black" d="M474.076,-875.585C495.431,-916.76 552.636,-1018.34 626,-1079.42 708.503,-1148.1 742.283,-1149.1 844,-1183.42 955.495,-1221.03 1092.07,-1243.97 1165.42,-1254.51"/>
<polygon fill="black" stroke="black" points="1164.95,-1257.98 1175.34,-1255.92 1165.93,-1251.05 1164.95,-1257.98"/>
</g>
<!-- Reap_Thread &#45;&gt;Interrupts_Enabled -->
<g id="edge29" class="edge"><title>Reap_Thread &#45;&gt;Interrupts_Enabled</title>
<path fill="none" stroke="black" d="M517.23,-848.11C610.457,-831.308 796.869,-796.785 808,-787.418 841.595,-759.146 809.899,-723.077 844,-695.418 923.785,-630.703 971.191,-677.195 1072,-657.418 1093.78,-653.145 1117.28,-648.049 1138.93,-643.156"/>
<polygon fill="black" stroke="black" points="1139.76,-646.557 1148.73,-640.926 1138.21,-639.731 1139.76,-646.557"/>
</g>
<!-- Reap_Thread &#45;&gt;Wake_Up  -->
<g id="edge31" class="edge"><title>Reap_Thread &#45;&gt;Wake_Up </title>
<path fill="none" stroke="black" d="M517.007,-857.418C560.12,-857.418 621.099,-857.418 664.164,-857.418"/>
<polygon fill="black" stroke="black" points="664.432,-860.918 674.431,-857.418 664.431,-853.918 664.432,-860.918"/>
</g>
<!-- Reap_Thread &#45;&gt;Enqueue_Thread -->
<g id="edge30" class="edge"><title>Reap_Thread &#45;&gt;Enqueue_Thread</title>
<path fill="none" stroke="black" d="M481.105,-875.771C529.399,-929.112 679.846,-1083.19 844,-1128.42 941.693,-1155.34 982.402,-1175.75 1072,-1128.42 1147.37,-1088.6 1191.16,-990.453 1208.82,-942.162"/>
<polygon fill="black" stroke="black" points="1212.15,-943.248 1212.2,-932.653 1205.56,-940.907 1212.15,-943.248"/>
</g>
<!-- Schedule &#45;&gt;KASSERT -->
<g id="edge33" class="edge"><title>Schedule &#45;&gt;KASSERT</title>
<path fill="none" stroke="black" d="M989.104,-447.473C1015.93,-465.371 1053.69,-495.426 1072,-532.418 1112.48,-614.185 1089.03,-852.172 1108,-941.418 1131.69,-1052.85 1182.61,-1179.09 1205.91,-1233.76"/>
<polygon fill="black" stroke="black" points="1202.77,-1235.3 1209.93,-1243.11 1209.2,-1232.54 1202.77,-1235.3"/>
</g>
<!-- Schedule &#45;&gt;Interrupts_Enabled -->
<g id="edge34" class="edge"><title>Schedule &#45;&gt;Interrupts_Enabled</title>
<path fill="none" stroke="black" d="M997.572,-434.789C1020.51,-439.285 1049.43,-447.326 1072,-461.418 1129.04,-497.032 1177,-561.319 1201.17,-597.605"/>
<polygon fill="black" stroke="black" points="1198.38,-599.744 1206.79,-606.193 1204.24,-595.909 1198.38,-599.744"/>
</g>
<!-- Get_Next_Runnable  -->
<g id="node22" class="node"><title>Get_Next_Runnable </title>
<polygon fill="Wheat" stroke="black" points="1295,-474.418 1143,-474.418 1143,-438.418 1295,-438.418 1295,-474.418"/>
<text text-anchor="middle" x="1219" y="-452.618" font-family="Times,serif" font-size="16.00" fill="blue">Get_Next_Runnable </text>
</g>
<!-- Schedule &#45;&gt;Get_Next_Runnable  -->
<g id="edge35" class="edge"><title>Schedule &#45;&gt;Get_Next_Runnable </title>
<path fill="none" stroke="black" d="M997.775,-433.46C1033.33,-437.167 1087.22,-442.784 1132.79,-447.535"/>
<polygon fill="black" stroke="black" points="1132.66,-451.041 1142.97,-448.597 1133.39,-444.079 1132.66,-451.041"/>
</g>
<!-- Switch_To_Thread -->
<g id="node23" class="node"><title>Switch_To_Thread</title>
<polygon fill="Wheat" stroke="black" points="1289,-420.418 1149,-420.418 1149,-384.418 1289,-384.418 1289,-420.418"/>
<text text-anchor="middle" x="1219" y="-398.618" font-family="Times,serif" font-size="16.00" fill="blue">Switch_To_Thread</text>
</g>
<!-- Schedule &#45;&gt;Switch_To_Thread -->
<g id="edge36" class="edge"><title>Schedule &#45;&gt;Switch_To_Thread</title>
<path fill="none" stroke="black" d="M997.775,-425.376C1034.92,-421.504 1092.06,-415.546 1138.84,-410.67"/>
<polygon fill="black" stroke="black" points="1139.37,-414.134 1148.95,-409.616 1138.64,-407.172 1139.37,-414.134"/>
</g>
<!-- Find_Best  -->
<g id="node24" class="node"><title>Find_Best </title>
<polygon fill="Wheat" stroke="black" points="1001,-989.418 915,-989.418 915,-953.418 1001,-953.418 1001,-989.418"/>
<text text-anchor="middle" x="958" y="-967.618" font-family="Times,serif" font-size="16.00" fill="blue">Find_Best </text>
</g>
<!-- Find_Best &#45;&gt;Get_Next_In_Thread_Queue -->
<g id="edge38" class="edge"><title>Find_Best &#45;&gt;Get_Next_In_Thread_Queue</title>
<path fill="none" stroke="black" d="M1001.2,-966.499C1023.84,-962.216 1051.27,-954.239 1072,-939.418 1094.87,-923.072 1084.85,-903.358 1108,-887.418 1110.16,-885.93 1112.4,-884.524 1114.69,-883.195"/>
<polygon fill="black" stroke="black" points="1116.56,-886.167 1123.81,-878.442 1113.33,-879.96 1116.56,-886.167"/>
</g>
<!-- Init_Scheduler  -->
<g id="node25" class="node"><title>Init_Scheduler </title>
<polygon fill="Wheat" stroke="black" points="300.5,-477.418 185.5,-477.418 185.5,-441.418 300.5,-441.418 300.5,-477.418"/>
<text text-anchor="middle" x="243" y="-455.618" font-family="Times,serif" font-size="16.00" fill="blue">Init_Scheduler </text>
</g>
<!-- Init_Thread  -->
<g id="node26" class="node"><title>Init_Thread </title>
<polygon fill="Wheat" stroke="black" points="512,-661.418 416,-661.418 416,-625.418 512,-625.418 512,-661.418"/>
<text text-anchor="middle" x="464" y="-639.618" font-family="Times,serif" font-size="16.00" fill="blue">Init_Thread </text>
</g>
<!-- Init_Scheduler &#45;&gt;Init_Thread  -->
<g id="edge39" class="edge"><title>Init_Scheduler &#45;&gt;Init_Thread </title>
<path fill="none" stroke="black" d="M264.794,-477.566C283.768,-494.07 312.631,-519.04 338,-540.418 370.209,-567.56 407.521,-598.202 432.937,-618.957"/>
<polygon fill="black" stroke="black" points="430.789,-621.721 440.75,-625.331 435.214,-616.297 430.789,-621.721"/>
</g>
<!-- Add_To_Back_Of_All_Thread_List -->
<g id="node28" class="node"><title>Add_To_Back_Of_All_Thread_List</title>
<polygon fill="Wheat" stroke="black" points="589.5,-477.418 338.5,-477.418 338.5,-441.418 589.5,-441.418 589.5,-477.418"/>
<text text-anchor="middle" x="464" y="-455.618" font-family="Times,serif" font-size="16.00" fill="blue">Add_To_Back_Of_All_Thread_List</text>
</g>
<!-- Init_Scheduler &#45;&gt;Add_To_Back_Of_All_Thread_List -->
<g id="edge42" class="edge"><title>Init_Scheduler &#45;&gt;Add_To_Back_Of_All_Thread_List</title>
<path fill="none" stroke="black" d="M300.683,-459.418C309.431,-459.418 318.77,-459.418 328.382,-459.418"/>
<polygon fill="black" stroke="black" points="328.484,-462.918 338.484,-459.418 328.484,-455.918 328.484,-462.918"/>
</g>
<!-- Start_Kernel_Thread  -->
<g id="node29" class="node"><title>Start_Kernel_Thread </title>
<polygon fill="Wheat" stroke="black" points="541.5,-423.418 386.5,-423.418 386.5,-387.418 541.5,-387.418 541.5,-423.418"/>
<text text-anchor="middle" x="464" y="-401.618" font-family="Times,serif" font-size="16.00" fill="blue">Start_Kernel_Thread </text>
</g>
<!-- Init_Scheduler &#45;&gt;Start_Kernel_Thread  -->
<g id="edge43" class="edge"><title>Init_Scheduler &#45;&gt;Start_Kernel_Thread </title>
<path fill="none" stroke="black" d="M300.5,-442.525C312.819,-439.028 325.814,-435.48 338,-432.418 350.44,-429.292 363.631,-426.201 376.601,-423.29"/>
<polygon fill="black" stroke="black" points="377.457,-426.685 386.461,-421.101 375.94,-419.852 377.457,-426.685"/>
</g>
<!-- Idle  -->
<g id="node30" class="node"><title>Idle </title>
<polygon fill="Wheat" stroke="black" points="491,-369.418 437,-369.418 437,-333.418 491,-333.418 491,-369.418"/>
<text text-anchor="middle" x="464" y="-347.618" font-family="Times,serif" font-size="16.00" fill="blue">Idle </text>
</g>
<!-- Init_Scheduler &#45;&gt;Idle  -->
<g id="edge44" class="edge"><title>Init_Scheduler &#45;&gt;Idle </title>
<path fill="none" stroke="black" d="M259.758,-441.312C277.053,-422.628 306.567,-394.069 338,-378.418 365.948,-364.502 400.91,-357.727 426.747,-354.447"/>
<polygon fill="black" stroke="black" points="427.331,-357.903 436.864,-353.281 426.529,-350.949 427.331,-357.903"/>
</g>
<!-- Reaper  -->
<g id="node32" class="node"><title>Reaper </title>
<polygon fill="Wheat" stroke="black" points="496.5,-531.418 431.5,-531.418 431.5,-495.418 496.5,-495.418 496.5,-531.418"/>
<text text-anchor="middle" x="464" y="-509.618" font-family="Times,serif" font-size="16.00" fill="blue">Reaper </text>
</g>
<!-- Init_Scheduler &#45;&gt;Reaper  -->
<g id="edge50" class="edge"><title>Init_Scheduler &#45;&gt;Reaper </title>
<path fill="none" stroke="black" d="M300.5,-476.31C312.819,-479.807 325.814,-483.355 338,-486.418 365.602,-493.355 396.903,-500.114 421.278,-505.135"/>
<polygon fill="black" stroke="black" points="420.771,-508.604 431.269,-507.176 422.172,-501.745 420.771,-508.604"/>
</g>
<!-- Init_Thread &#45;&gt;Clear_Thread_Queue -->
<g id="edge41" class="edge"><title>Init_Thread &#45;&gt;Clear_Thread_Queue</title>
<path fill="none" stroke="black" d="M511.226,-661.502C581.164,-685.656 715.507,-719.224 808,-662.418 838.148,-643.902 816.685,-613.904 844,-591.418 852.256,-584.622 861.871,-579.267 871.943,-575.048"/>
<polygon fill="black" stroke="black" points="873.197,-578.316 881.295,-571.485 870.704,-571.775 873.197,-578.316"/>
</g>
<!-- memset -->
<g id="node27" class="node"><title>memset</title>
<polygon fill="Wheat" stroke="black" points="750,-653.418 684,-653.418 684,-617.418 750,-617.418 750,-653.418"/>
<text text-anchor="middle" x="717" y="-631.618" font-family="Times,serif" font-size="16.00" fill="blue">memset</text>
</g>
<!-- Init_Thread &#45;&gt;memset -->
<g id="edge40" class="edge"><title>Init_Thread &#45;&gt;memset</title>
<path fill="none" stroke="black" d="M512.211,-641.913C558.62,-640.434 628.809,-638.197 673.515,-636.772"/>
<polygon fill="black" stroke="black" points="673.867,-640.263 683.75,-636.446 673.644,-633.266 673.867,-640.263"/>
</g>
<!-- Yield  -->
<g id="node31" class="node"><title>Yield </title>
<polygon fill="Wheat" stroke="black" points="745,-409.418 689,-409.418 689,-373.418 745,-373.418 745,-409.418"/>
<text text-anchor="middle" x="717" y="-387.618" font-family="Times,serif" font-size="16.00" fill="blue">Yield </text>
</g>
<!-- Idle &#45;&gt;Yield  -->
<g id="edge45" class="edge"><title>Idle &#45;&gt;Yield </title>
<path fill="none" stroke="black" d="M491.387,-355.623C536.251,-362.773 627.51,-377.316 678.822,-385.493"/>
<polygon fill="black" stroke="black" points="678.404,-388.971 688.83,-387.088 679.506,-382.058 678.404,-388.971"/>
</g>
<!-- Yield &#45;&gt;Disable_Interrupts -->
<g id="edge46" class="edge"><title>Yield &#45;&gt;Disable_Interrupts</title>
<path fill="none" stroke="black" d="M744.403,-373.189C762.562,-360.449 787.081,-342.845 808,-326.418 851.251,-292.456 899.346,-250.696 928.887,-224.559"/>
<polygon fill="black" stroke="black" points="931.55,-226.876 936.708,-217.621 926.904,-221.64 931.55,-226.876"/>
</g>
<!-- Yield &#45;&gt;Enable_Interrupts -->
<g id="edge49" class="edge"><title>Yield &#45;&gt;Enable_Interrupts</title>
<path fill="none" stroke="black" d="M745.416,-387.174C778.543,-382.045 835.625,-373.208 882.156,-366.005"/>
<polygon fill="black" stroke="black" points="882.868,-369.436 892.215,-364.447 881.797,-362.519 882.868,-369.436"/>
</g>
<!-- Yield &#45;&gt;Make_Runnable  -->
<g id="edge47" class="edge"><title>Yield &#45;&gt;Make_Runnable </title>
<path fill="none" stroke="black" d="M726.289,-409.439C743.059,-446.295 781.651,-533.162 808,-608.418 827.105,-662.984 809.09,-687.334 844,-733.418 859.302,-753.618 882.269,-769.369 903.509,-780.77"/>
<polygon fill="black" stroke="black" points="901.986,-783.922 912.478,-785.39 905.191,-777.699 901.986,-783.922"/>
</g>
<!-- Yield &#45;&gt;Schedule  -->
<g id="edge48" class="edge"><title>Yield &#45;&gt;Schedule </title>
<path fill="none" stroke="black" d="M745.416,-395.777C785.138,-402.093 859.3,-413.884 908.417,-421.694"/>
<polygon fill="black" stroke="black" points="908.071,-425.182 918.497,-423.296 909.17,-418.269 908.071,-425.182"/>
</g>
<!-- Reaper &#45;&gt;Print -->
<g id="edge61" class="edge"><title>Reaper &#45;&gt;Print</title>
<path fill="none" stroke="black" d="M496.638,-529.345C526.647,-546.37 570.031,-576.415 590,-616.418 630.237,-697.022 564.729,-1360.37 626,-1426.42 701.354,-1507.64 1064.63,-1502.67 1181.62,-1498.86"/>
<polygon fill="black" stroke="black" points="1181.96,-1502.36 1191.84,-1498.51 1181.72,-1495.36 1181.96,-1502.36"/>
</g>
<!-- Reaper &#45;&gt;Disable_Interrupts -->
<g id="edge51" class="edge"><title>Reaper &#45;&gt;Disable_Interrupts</title>
<path fill="none" stroke="black" d="M496.561,-515.923C525.222,-516.32 566.498,-511.859 590,-486.418 671.55,-398.139 537.844,-300.1 626,-218.418 661.638,-185.396 794.212,-187.664 880.378,-193.038"/>
<polygon fill="black" stroke="black" points="880.18,-196.533 890.386,-193.689 880.634,-189.547 880.18,-196.533"/>
</g>
<!-- Reaper &#45;&gt;Enable_Interrupts -->
<g id="edge58" class="edge"><title>Reaper &#45;&gt;Enable_Interrupts</title>
<path fill="none" stroke="black" d="M496.617,-510.083C522.543,-506.537 559.761,-499.556 590,-486.418 607.866,-478.656 608.209,-469.352 626,-461.418 701.909,-427.565 729.238,-444.967 808,-418.418 824.592,-412.825 827.942,-409.397 844,-402.418 863.733,-393.842 885.474,-384.566 904.571,-376.476"/>
<polygon fill="black" stroke="black" points="906.156,-379.606 914.002,-372.486 903.428,-373.159 906.156,-379.606"/>
</g>
<!-- Reaper &#45;&gt;Get_Next_In_Thread_Queue -->
<g id="edge60" class="edge"><title>Reaper &#45;&gt;Get_Next_In_Thread_Queue</title>
<path fill="none" stroke="black" d="M496.65,-509.76C608.198,-497.557 981.22,-462.809 1072,-532.418 1115.85,-566.041 1087.04,-600.293 1108,-651.418 1135.87,-719.38 1178.6,-794.568 1201.74,-833.59"/>
<polygon fill="black" stroke="black" points="1198.78,-835.462 1206.91,-842.255 1204.79,-831.875 1198.78,-835.462"/>
</g>
<!-- Reaper &#45;&gt;Clear_Thread_Queue -->
<g id="edge57" class="edge"><title>Reaper &#45;&gt;Clear_Thread_Queue</title>
<path fill="none" stroke="black" d="M496.525,-516.365C570.977,-523.326 759.799,-540.98 871.161,-551.392"/>
<polygon fill="black" stroke="black" points="871.076,-554.9 881.359,-552.346 871.728,-547.93 871.076,-554.9"/>
</g>
<!-- Reaper &#45;&gt;Yield  -->
<g id="edge59" class="edge"><title>Reaper &#45;&gt;Yield </title>
<path fill="none" stroke="black" d="M496.648,-513.544C523.813,-512.139 562.775,-506.359 590,-486.418 616.016,-467.362 601.265,-444.11 626,-423.418 640.992,-410.876 661.258,-403.1 678.762,-398.359"/>
<polygon fill="black" stroke="black" points="679.821,-401.703 688.689,-395.906 678.142,-394.908 679.821,-401.703"/>
</g>
<!-- Wait  -->
<g id="node33" class="node"><title>Wait </title>
<polygon fill="Wheat" stroke="black" points="744,-745.418 690,-745.418 690,-709.418 744,-709.418 744,-745.418"/>
<text text-anchor="middle" x="717" y="-723.618" font-family="Times,serif" font-size="16.00" fill="blue">Wait </text>
</g>
<!-- Reaper &#45;&gt;Wait  -->
<g id="edge52" class="edge"><title>Reaper &#45;&gt;Wait </title>
<path fill="none" stroke="black" d="M490.319,-531.689C516.588,-551.221 558.196,-583.804 590,-616.418 608.125,-635.005 607.292,-644.418 626,-662.418 642.677,-678.464 663.508,-693.757 680.929,-705.473"/>
<polygon fill="black" stroke="black" points="679.415,-708.668 689.688,-711.259 683.273,-702.827 679.415,-708.668"/>
</g>
<!-- Destroy_Thread  -->
<g id="node34" class="node"><title>Destroy_Thread </title>
<polygon fill="Wheat" stroke="black" points="779,-133.418 655,-133.418 655,-97.418 779,-97.418 779,-133.418"/>
<text text-anchor="middle" x="717" y="-111.618" font-family="Times,serif" font-size="16.00" fill="blue">Destroy_Thread </text>
</g>
<!-- Reaper &#45;&gt;Destroy_Thread  -->
<g id="edge62" class="edge"><title>Reaper &#45;&gt;Destroy_Thread </title>
<path fill="none" stroke="black" d="M496.646,-516.001C525.367,-516.452 566.683,-512.029 590,-486.418 680.703,-386.792 559.711,-302.714 626,-185.418 636.699,-166.487 654.788,-150.914 671.954,-139.302"/>
<polygon fill="black" stroke="black" points="674.297,-141.956 680.803,-133.594 670.503,-136.074 674.297,-141.956"/>
</g>
<!-- Wait &#45;&gt;KASSERT -->
<g id="edge53" class="edge"><title>Wait &#45;&gt;KASSERT</title>
<path fill="none" stroke="black" d="M739.294,-745.678C760.075,-764.708 790.975,-796.451 808,-830.418 842.216,-898.685 788.217,-946.271 844,-998.418 918.797,-1068.34 986.046,-975.781 1072,-1031.42 1147.62,-1080.36 1191.53,-1183.78 1209.06,-1233.53"/>
<polygon fill="black" stroke="black" points="1205.85,-1234.97 1212.4,-1243.29 1212.47,-1232.7 1205.85,-1234.97"/>
</g>
<!-- Wait &#45;&gt;Interrupts_Enabled -->
<g id="edge54" class="edge"><title>Wait &#45;&gt;Interrupts_Enabled</title>
<path fill="none" stroke="black" d="M744.105,-722.232C763.521,-717.282 789.712,-708.177 808,-692.418 832.43,-671.366 816.216,-645.791 844,-629.418 934.535,-576.066 1060.06,-588.168 1140.16,-604.292"/>
<polygon fill="black" stroke="black" points="1139.68,-607.766 1150.18,-606.378 1141.1,-600.913 1139.68,-607.766"/>
</g>
<!-- Wait &#45;&gt;Enqueue_Thread -->
<g id="edge55" class="edge"><title>Wait &#45;&gt;Enqueue_Thread</title>
<path fill="none" stroke="black" d="M734.896,-745.727C757.475,-769.047 799.799,-808.897 844,-830.418 942.061,-878.164 1067.85,-899.204 1145.67,-908.163"/>
<polygon fill="black" stroke="black" points="1145.53,-911.669 1155.86,-909.298 1146.31,-904.712 1145.53,-911.669"/>
</g>
<!-- Wait &#45;&gt;Schedule  -->
<g id="edge56" class="edge"><title>Wait &#45;&gt;Schedule </title>
<path fill="none" stroke="black" d="M744.255,-714.751C764.548,-703.657 791.822,-685.678 808,-662.418 842.233,-613.2 812.617,-583.5 844,-532.418 863.725,-500.312 896.319,-472.142 921.446,-453.414"/>
<polygon fill="black" stroke="black" points="923.632,-456.152 929.652,-447.433 919.509,-450.495 923.632,-456.152"/>
</g>
<!-- Destroy_Thread &#45;&gt;Disable_Interrupts -->
<g id="edge63" class="edge"><title>Destroy_Thread &#45;&gt;Disable_Interrupts</title>
<path fill="none" stroke="black" d="M772.191,-133.479C784.094,-137.78 796.557,-142.544 808,-147.418 824.458,-154.427 827.374,-158.817 844,-165.418 855.644,-170.041 868.173,-174.396 880.5,-178.346"/>
<polygon fill="black" stroke="black" points="879.732,-181.774 890.322,-181.425 881.826,-175.094 879.732,-181.774"/>
</g>
<!-- Destroy_Thread &#45;&gt;Enable_Interrupts -->
<g id="edge66" class="edge"><title>Destroy_Thread &#45;&gt;Enable_Interrupts</title>
<path fill="none" stroke="black" d="M736.357,-133.775C778.689,-176.107 883.222,-280.64 931.637,-329.055"/>
<polygon fill="black" stroke="black" points="929.362,-331.729 938.908,-336.325 934.311,-326.78 929.362,-331.729"/>
</g>
<!-- Free_Page -->
<g id="node35" class="node"><title>Free_Page</title>
<polygon fill="Wheat" stroke="black" points="999.5,-102.418 916.5,-102.418 916.5,-66.418 999.5,-66.418 999.5,-102.418"/>
<text text-anchor="middle" x="958" y="-80.618" font-family="Times,serif" font-size="16.00" fill="blue">Free_Page</text>
</g>
<!-- Destroy_Thread &#45;&gt;Free_Page -->
<g id="edge64" class="edge"><title>Destroy_Thread &#45;&gt;Free_Page</title>
<path fill="none" stroke="black" d="M779.238,-107.475C818.555,-102.375 869.011,-95.8307 906.117,-91.0178"/>
<polygon fill="black" stroke="black" points="906.742,-94.4662 916.209,-89.7089 905.842,-87.5243 906.742,-94.4662"/>
</g>
<!-- Remove_From_All_Thread_List -->
<g id="node36" class="node"><title>Remove_From_All_Thread_List</title>
<polygon fill="Wheat" stroke="black" points="1072,-156.418 844,-156.418 844,-120.418 1072,-120.418 1072,-156.418"/>
<text text-anchor="middle" x="958" y="-134.618" font-family="Times,serif" font-size="16.00" fill="blue">Remove_From_All_Thread_List</text>
</g>
<!-- Destroy_Thread &#45;&gt;Remove_From_All_Thread_List -->
<g id="edge65" class="edge"><title>Destroy_Thread &#45;&gt;Remove_From_All_Thread_List</title>
<path fill="none" stroke="black" d="M779.238,-121.311C796.003,-122.925 814.793,-124.733 833.71,-126.553"/>
<polygon fill="black" stroke="black" points="833.621,-130.061 843.91,-127.535 834.292,-123.093 833.621,-130.061"/>
</g>
<!-- Join  -->
<g id="node37" class="node"><title>Join </title>
<polygon fill="Wheat" stroke="black" points="101,-722.418 47,-722.418 47,-686.418 101,-686.418 101,-722.418"/>
<text text-anchor="middle" x="74" y="-700.618" font-family="Times,serif" font-size="16.00" fill="blue">Join </text>
</g>
<!-- Join &#45;&gt;KASSERT -->
<g id="edge67" class="edge"><title>Join &#45;&gt;KASSERT</title>
<path fill="none" stroke="black" d="M75.6844,-722.655C79.4938,-814.348 101.008,-1224.12 184,-1313.42 455.281,-1605.32 711.316,-1606.85 1072,-1437.42 1137.7,-1406.56 1184.03,-1330 1205.14,-1288.76"/>
<polygon fill="black" stroke="black" points="1208.4,-1290.08 1209.73,-1279.57 1202.13,-1286.95 1208.4,-1290.08"/>
</g>
<!-- Join &#45;&gt;Interrupts_Enabled -->
<g id="edge68" class="edge"><title>Join &#45;&gt;Interrupts_Enabled</title>
<path fill="none" stroke="black" d="M101.39,-710.478C218.532,-736.751 690.85,-835.898 808,-754.418 845.751,-728.161 807.44,-685.31 844,-657.418 866.851,-639.985 1035.75,-630.909 1138.6,-626.95"/>
<polygon fill="black" stroke="black" points="1138.78,-630.445 1148.64,-626.571 1138.52,-623.45 1138.78,-630.445"/>
</g>
<!-- Join &#45;&gt;Disable_Interrupts -->
<g id="edge69" class="edge"><title>Join &#45;&gt;Disable_Interrupts</title>
<path fill="none" stroke="black" d="M78.4709,-686.405C88.1438,-640.015 119.066,-514.35 184,-432.418 235.924,-366.901 265.838,-366.623 338,-324.418 460.519,-252.76 487.592,-217.866 626,-186.418 704.878,-168.496 727.188,-182.899 808,-186.418 831.502,-187.441 857.029,-189.368 880.206,-191.431"/>
<polygon fill="black" stroke="black" points="880.05,-194.932 890.326,-192.354 880.685,-187.96 880.05,-194.932"/>
</g>
<!-- Join &#45;&gt;Enable_Interrupts -->
<g id="edge72" class="edge"><title>Join &#45;&gt;Enable_Interrupts</title>
<path fill="none" stroke="black" d="M101.03,-687.751C146.908,-659.243 246.032,-601.481 338,-573.418 446.038,-540.451 480.639,-568.69 590,-540.418 690.84,-514.349 726.393,-519.138 808,-454.418 830.024,-436.952 822.205,-420.168 844,-402.418 856.934,-391.885 872.52,-383.306 887.928,-376.471"/>
<polygon fill="black" stroke="black" points="889.623,-379.554 897.473,-372.438 886.899,-373.106 889.623,-379.554"/>
</g>
<!-- Join &#45;&gt;Detach_Thread  -->
<g id="edge71" class="edge"><title>Join &#45;&gt;Detach_Thread </title>
<path fill="none" stroke="black" d="M101.094,-700.824C120.611,-698.136 148.239,-694.331 173.867,-690.802"/>
<polygon fill="black" stroke="black" points="174.514,-694.246 183.943,-689.414 173.559,-687.311 174.514,-694.246"/>
</g>
<!-- Join &#45;&gt;Wait  -->
<g id="edge70" class="edge"><title>Join &#45;&gt;Wait </title>
<path fill="none" stroke="black" d="M101.431,-705.395C123.504,-706.21 155.803,-707.397 184,-708.418 370.632,-715.175 594.1,-723.103 679.968,-726.143"/>
<polygon fill="black" stroke="black" points="679.864,-729.642 689.982,-726.498 680.112,-722.646 679.864,-729.642"/>
</g>
<!-- Make_Runnable_Atomic  -->
<g id="node38" class="node"><title>Make_Runnable_Atomic </title>
<polygon fill="Wheat" stroke="black" points="808,-317.418 626,-317.418 626,-281.418 808,-281.418 808,-317.418"/>
<text text-anchor="middle" x="717" y="-295.618" font-family="Times,serif" font-size="16.00" fill="blue">Make_Runnable_Atomic </text>
</g>
<!-- Make_Runnable_Atomic &#45;&gt;Disable_Interrupts -->
<g id="edge73" class="edge"><title>Make_Runnable_Atomic &#45;&gt;Disable_Interrupts</title>
<path fill="none" stroke="black" d="M782.839,-281.362C791.376,-278.578 799.95,-275.573 808,-272.418 845.027,-257.907 885.452,-237.816 914.841,-222.384"/>
<polygon fill="black" stroke="black" points="916.774,-225.321 923.977,-217.551 913.501,-219.134 916.774,-225.321"/>
</g>
<!-- Make_Runnable_Atomic &#45;&gt;Enable_Interrupts -->
<g id="edge75" class="edge"><title>Make_Runnable_Atomic &#45;&gt;Enable_Interrupts</title>
<path fill="none" stroke="black" d="M796.258,-317.427C823.902,-323.789 854.903,-330.923 882.249,-337.216"/>
<polygon fill="black" stroke="black" points="881.616,-340.662 892.146,-339.493 883.186,-333.84 881.616,-340.662"/>
</g>
<!-- Make_Runnable_Atomic &#45;&gt;Make_Runnable  -->
<g id="edge74" class="edge"><title>Make_Runnable_Atomic &#45;&gt;Make_Runnable </title>
<path fill="none" stroke="black" d="M756.537,-317.441C775.301,-328.309 796.29,-344.027 808,-364.418 890.059,-507.311 756.93,-593.522 844,-733.418 856.853,-754.069 878.278,-769.581 899.037,-780.685"/>
<polygon fill="black" stroke="black" points="897.678,-783.921 908.179,-785.328 900.848,-777.679 897.678,-783.921"/>
</g>
<!-- Setup_User_Thread  -->
<g id="node39" class="node"><title>Setup_User_Thread </title>
<polygon fill="Wheat" stroke="black" points="148,-1547.42 0,-1547.42 0,-1511.42 148,-1511.42 148,-1547.42"/>
<text text-anchor="middle" x="74" y="-1525.62" font-family="Times,serif" font-size="16.00" fill="blue">Setup_User_Thread </text>
</g>
<!-- TODO -->
<g id="node40" class="node"><title>TODO</title>
<polygon fill="Wheat" stroke="black" points="273,-1547.42 213,-1547.42 213,-1511.42 273,-1511.42 273,-1547.42"/>
<text text-anchor="middle" x="243" y="-1525.62" font-family="Times,serif" font-size="16.00" fill="blue">TODO</text>
</g>
<!-- Setup_User_Thread &#45;&gt;TODO -->
<g id="edge76" class="edge"><title>Setup_User_Thread &#45;&gt;TODO</title>
<path fill="none" stroke="black" d="M148.249,-1529.42C166.94,-1529.42 186.328,-1529.42 202.588,-1529.42"/>
<polygon fill="black" stroke="black" points="202.783,-1532.92 212.782,-1529.42 202.782,-1525.92 202.783,-1532.92"/>
</g>
<!-- Tlocal_Create  -->
<g id="node41" class="node"><title>Tlocal_Create </title>
<polygon fill="Wheat" stroke="black" points="1013,-1569.42 903,-1569.42 903,-1533.42 1013,-1533.42 1013,-1569.42"/>
<text text-anchor="middle" x="958" y="-1547.62" font-family="Times,serif" font-size="16.00" fill="blue">Tlocal_Create </text>
</g>
<!-- Tlocal_Create &#45;&gt;Begin_Int_Atomic -->
<g id="edge78" class="edge"><title>Tlocal_Create &#45;&gt;Begin_Int_Atomic</title>
<path fill="none" stroke="black" d="M1013.29,-1551.42C1050.08,-1551.42 1099.25,-1551.42 1140.18,-1551.42"/>
<polygon fill="black" stroke="black" points="1140.4,-1554.92 1150.4,-1551.42 1140.4,-1547.92 1140.4,-1554.92"/>
</g>
<!-- Tlocal_Create &#45;&gt;KASSERT -->
<g id="edge77" class="edge"><title>Tlocal_Create &#45;&gt;KASSERT</title>
<path fill="none" stroke="black" d="M996.664,-1533.4C1020.1,-1520.97 1049.88,-1502.86 1072,-1481.42 1133.18,-1422.12 1182.48,-1332.96 1204.9,-1288.56"/>
<polygon fill="black" stroke="black" points="1208.07,-1290.05 1209.4,-1279.54 1201.81,-1286.93 1208.07,-1290.05"/>
</g>
<!-- Tlocal_Create &#45;&gt;End_Int_Atomic -->
<g id="edge79" class="edge"><title>Tlocal_Create &#45;&gt;End_Int_Atomic</title>
<path fill="none" stroke="black" d="M1013.29,-1562.74C1051.88,-1570.78 1104.11,-1581.67 1146.14,-1590.44"/>
<polygon fill="black" stroke="black" points="1145.54,-1593.89 1156.05,-1592.5 1146.97,-1587.03 1145.54,-1593.89"/>
</g>
<!-- Tlocal_Get  -->
<g id="node42" class="node"><title>Tlocal_Get </title>
<polygon fill="Wheat" stroke="black" points="763,-1363.42 671,-1363.42 671,-1327.42 763,-1327.42 763,-1363.42"/>
<text text-anchor="middle" x="717" y="-1341.62" font-family="Times,serif" font-size="16.00" fill="blue">Tlocal_Get </text>
</g>
<!-- Tlocal_Get &#45;&gt;KASSERT -->
<g id="edge80" class="edge"><title>Tlocal_Get &#45;&gt;KASSERT</title>
<path fill="none" stroke="black" d="M763.258,-1344.96C831.116,-1343.45 962.906,-1337.37 1072,-1313.42 1104.32,-1306.32 1139.29,-1294.04 1166.9,-1283.19"/>
<polygon fill="black" stroke="black" points="1168.35,-1286.38 1176.34,-1279.43 1165.76,-1279.88 1168.35,-1286.38"/>
</g>
<!-- Get_Tlocal_Pointer  -->
<g id="node43" class="node"><title>Get_Tlocal_Pointer </title>
<polygon fill="Wheat" stroke="black" points="1031,-1401.42 885,-1401.42 885,-1365.42 1031,-1365.42 1031,-1401.42"/>
<text text-anchor="middle" x="958" y="-1379.62" font-family="Times,serif" font-size="16.00" fill="blue">Get_Tlocal_Pointer </text>
</g>
<!-- Tlocal_Get &#45;&gt;Get_Tlocal_Pointer  -->
<g id="edge81" class="edge"><title>Tlocal_Get &#45;&gt;Get_Tlocal_Pointer </title>
<path fill="none" stroke="black" d="M763.235,-1352.61C794.665,-1357.61 837.45,-1364.41 874.822,-1370.35"/>
<polygon fill="black" stroke="black" points="874.273,-1373.81 884.699,-1371.92 875.372,-1366.9 874.273,-1373.81"/>
</g>
<!-- Get_Tlocal_Pointer &#45;&gt;KASSERT -->
<g id="edge82" class="edge"><title>Get_Tlocal_Pointer &#45;&gt;KASSERT</title>
<path fill="none" stroke="black" d="M1031.18,-1366.2C1044.98,-1362.01 1059.12,-1357.08 1072,-1351.42 1113.01,-1333.39 1156.24,-1305.47 1184.92,-1285.51"/>
<polygon fill="black" stroke="black" points="1187.17,-1288.21 1193.33,-1279.59 1183.14,-1282.48 1187.17,-1288.21"/>
</g>
<!-- Tlocal_Put  -->
<g id="node44" class="node"><title>Tlocal_Put </title>
<polygon fill="Wheat" stroke="black" points="762.5,-1417.42 671.5,-1417.42 671.5,-1381.42 762.5,-1381.42 762.5,-1417.42"/>
<text text-anchor="middle" x="717" y="-1395.62" font-family="Times,serif" font-size="16.00" fill="blue">Tlocal_Put </text>
</g>
<!-- Tlocal_Put &#45;&gt;KASSERT -->
<g id="edge83" class="edge"><title>Tlocal_Put &#45;&gt;KASSERT</title>
<path fill="none" stroke="black" d="M762.633,-1412.22C831.943,-1429.66 968.263,-1454.01 1072,-1410.42 1131.1,-1385.59 1178.27,-1323.86 1201.75,-1288.13"/>
<polygon fill="black" stroke="black" points="1204.75,-1289.95 1207.21,-1279.65 1198.86,-1286.17 1204.75,-1289.95"/>
</g>
<!-- Tlocal_Put &#45;&gt;Get_Tlocal_Pointer  -->
<g id="edge84" class="edge"><title>Tlocal_Put &#45;&gt;Get_Tlocal_Pointer </title>
<path fill="none" stroke="black" d="M762.674,-1396.43C794.042,-1394.33 836.92,-1391.46 874.42,-1388.95"/>
<polygon fill="black" stroke="black" points="875.096,-1392.41 884.84,-1388.25 874.629,-1385.42 875.096,-1392.41"/>
</g>
<!-- Wake_Up_One  -->
<g id="node45" class="node"><title>Wake_Up_One </title>
<polygon fill="Wheat" stroke="black" points="776.5,-989.418 657.5,-989.418 657.5,-953.418 776.5,-953.418 776.5,-989.418"/>
<text text-anchor="middle" x="717" y="-967.618" font-family="Times,serif" font-size="16.00" fill="blue">Wake_Up_One </text>
</g>
<!-- Wake_Up_One &#45;&gt;KASSERT -->
<g id="edge85" class="edge"><title>Wake_Up_One &#45;&gt;KASSERT</title>
<path fill="none" stroke="black" d="M728.014,-989.672C746.686,-1022.1 789.876,-1089.95 844,-1128.42 931.652,-1190.72 970.681,-1173.38 1072,-1209.42 1103.07,-1220.47 1137.85,-1232.86 1165.67,-1242.77"/>
<polygon fill="black" stroke="black" points="1164.61,-1246.1 1175.2,-1246.16 1166.96,-1239.51 1164.61,-1246.1"/>
</g>
<!-- Wake_Up_One &#45;&gt;Interrupts_Enabled -->
<g id="edge86" class="edge"><title>Wake_Up_One &#45;&gt;Interrupts_Enabled</title>
<path fill="none" stroke="black" d="M776.817,-958.96C851.636,-940.812 981.926,-901.288 1072,-830.418 1135.74,-780.271 1183.6,-695.016 1205.25,-651.588"/>
<polygon fill="black" stroke="black" points="1208.45,-653.006 1209.71,-642.486 1202.16,-649.928 1208.45,-653.006"/>
</g>
<!-- Wake_Up_One &#45;&gt;Make_Runnable  -->
<g id="edge89" class="edge"><title>Wake_Up_One &#45;&gt;Make_Runnable </title>
<path fill="none" stroke="black" d="M739.767,-953.338C764.468,-933.096 806.237,-899.69 844,-873.418 867.643,-856.97 895.09,-839.922 917.013,-826.769"/>
<polygon fill="black" stroke="black" points="918.941,-829.694 925.736,-821.565 915.355,-823.683 918.941,-829.694"/>
</g>
<!-- Wake_Up_One &#45;&gt;Find_Best  -->
<g id="edge87" class="edge"><title>Wake_Up_One &#45;&gt;Find_Best </title>
<path fill="none" stroke="black" d="M776.772,-971.418C815.936,-971.418 866.953,-971.418 904.707,-971.418"/>
<polygon fill="black" stroke="black" points="904.984,-974.918 914.984,-971.418 904.983,-967.918 904.984,-974.918"/>
</g>
<!-- Remove_Thread -->
<g id="node46" class="node"><title>Remove_Thread</title>
<polygon fill="Wheat" stroke="black" points="1019.5,-1119.42 896.5,-1119.42 896.5,-1083.42 1019.5,-1083.42 1019.5,-1119.42"/>
<text text-anchor="middle" x="958" y="-1097.62" font-family="Times,serif" font-size="16.00" fill="blue">Remove_Thread</text>
</g>
<!-- Wake_Up_One &#45;&gt;Remove_Thread -->
<g id="edge88" class="edge"><title>Wake_Up_One &#45;&gt;Remove_Thread</title>
<path fill="none" stroke="black" d="M736.464,-989.578C759.703,-1011.48 801.718,-1048.02 844,-1069.42 857.229,-1076.11 872.061,-1081.59 886.517,-1085.99"/>
<polygon fill="black" stroke="black" points="885.861,-1089.45 896.44,-1088.87 887.813,-1082.72 885.861,-1089.45"/>
</g>
</g>
</svg>
